<svg  viewBox="0 0 500 500" fill="none" xmlns="http://www.w3.org/2000/svg">
<path d="M241.48 147.68C290.63 209.86 421 171.24 413.16 281.84C405.64 387.84 266.7 367.9 199.54 338.07C121.68 303.48 65.24 224.15 99.29 140.43C112.44 108.1 137.6 78.0001 175.49 76.3001C236 73.5901 215.44 114.72 241.48 147.68Z" fill="#3771E7"/>
<path opacity="0.9" d="M241.48 147.68C290.63 209.86 421 171.24 413.16 281.84C405.64 387.84 266.7 367.9 199.54 338.07C121.68 303.48 65.24 224.15 99.29 140.43C112.44 108.1 137.6 78.0001 175.49 76.3001C236 73.5901 215.44 114.72 241.48 147.68Z" fill="white"/>
<path d="M250 427.56C357.082 427.56 443.89 422.492 443.89 416.24C443.89 409.988 357.082 404.92 250 404.92C142.917 404.92 56.11 409.988 56.11 416.24C56.11 422.492 142.917 427.56 250 427.56Z" fill="#F5F5F5"/>
<path d="M256.56 150.17C257.25 151.03 258.11 152.05 258.9 152.99C259.69 153.93 260.55 154.88 261.39 155.81C263.08 157.66 264.79 159.48 266.56 161.17C268.266 162.812 270.063 164.357 271.94 165.8C273.467 167.024 275.174 168.006 277 168.71L277.25 168.8C277.32 168.8 277.25 168.8 277.3 168.8H277.35C277.35 168.8 277.46 168.8 277.63 168.8C278.233 168.662 278.799 168.396 279.29 168.02C280.967 166.74 282.446 165.22 283.68 163.51C285.169 161.584 286.525 159.56 287.74 157.45C288.37 156.37 289.01 155.29 289.6 154.18C290.19 153.07 290.79 151.9 291.31 150.88L291.41 150.68C291.837 149.621 292.667 148.776 293.717 148.328C294.767 147.881 295.952 147.868 297.012 148.293C298.071 148.718 298.919 149.546 299.368 150.596C299.818 151.645 299.833 152.83 299.41 153.89C297.765 159.37 295.451 164.626 292.52 169.54C290.864 172.298 288.801 174.79 286.4 176.93C284.859 178.277 283.078 179.322 281.15 180.01C279.979 180.407 278.756 180.626 277.52 180.66C276.872 180.682 276.223 180.648 275.58 180.56C275.27 180.56 274.9 180.46 274.65 180.4L273.94 180.24C270.695 179.344 267.622 177.91 264.85 176C262.385 174.384 260.045 172.586 257.85 170.62C255.7 168.73 253.67 166.78 251.73 164.75C250.73 163.75 249.81 162.75 248.88 161.67C247.95 160.59 247.07 159.6 246.1 158.39C244.989 157.01 244.471 155.244 244.662 153.482C244.852 151.72 245.735 150.106 247.115 148.995C248.495 147.884 250.261 147.366 252.023 147.557C253.785 147.747 255.399 148.63 256.51 150.01V150.01L256.56 150.17Z" fill="#2D3D45"/>
<path d="M295.62 153.37L302.24 154.3L300.29 147.21C300.29 147.21 293.42 146.3 293.29 149.88L293.62 151.45C293.717 151.937 293.96 152.382 294.318 152.725C294.676 153.068 295.13 153.294 295.62 153.37V153.37Z" fill="#CE7A63"/>
<path d="M308.2 151.26V144.85L300.29 147.21L302.24 154.3L308.2 151.26Z" fill="#CE7A63"/>
<path d="M281.74 405.12L288.99 402.77L284.48 385.68L277.23 388.03L281.74 405.12Z" fill="#CE7A63"/>
<path d="M289.1 401.81L281 404.45C280.932 404.47 280.868 404.503 280.812 404.547C280.757 404.591 280.71 404.646 280.676 404.708C280.641 404.771 280.62 404.839 280.612 404.91C280.604 404.98 280.61 405.052 280.63 405.12L282.32 411.69C282.43 412.029 282.669 412.311 282.985 412.476C283.301 412.64 283.669 412.674 284.01 412.57C286.83 411.57 288.13 410.99 291.71 409.83C296.069 408.139 300.3 406.133 304.37 403.83C307.02 402.17 305.32 399.5 304.02 399.98C298.19 402.11 293.11 402.8 290.54 401.86C290.08 401.678 289.571 401.66 289.1 401.81Z" fill="#2D3D45"/>
<path opacity="0.2" d="M277.23 388.04L284.49 385.68L286.8 394.49L279.55 396.85L277.23 388.04Z" fill="black"/>
<path d="M259.57 215C259.57 215 268.63 278 271.68 299.64C275.02 323.34 289.37 391.64 289.37 391.64L275.92 395.36C275.92 395.36 255.47 329.2 250 306.16C244.09 281.16 232.31 215 232.31 215H259.57Z" fill="#2D3D45"/>
<path d="M245 282.68C242.23 268.78 239.23 252.87 236.85 239.97C238.08 236.66 239.95 234.97 243.59 242.45C249 253.54 247.29 271.84 245 282.68Z" fill="#2D3D45"/>
<path opacity="0.3" d="M245 282.68C242.23 268.78 239.23 252.87 236.85 239.97C238.08 236.66 239.95 234.97 243.59 242.45C249 253.54 247.29 271.84 245 282.68Z" fill="black"/>
<path d="M275.58 395.66L289.99 391.69L289.71 385.82L273.49 391.43L275.58 395.66Z" fill="#2D3D45"/>
<path d="M224.68 408.46H232.29L233.28 390.81H225.66L224.68 408.46Z" fill="#CE7A63"/>
<path d="M232.69 407.57H224.13C224.059 407.568 223.988 407.579 223.922 407.604C223.855 407.628 223.794 407.666 223.742 407.714C223.69 407.762 223.648 407.82 223.619 407.885C223.589 407.95 223.573 408.019 223.57 408.09L223.15 414.87C223.15 415.227 223.291 415.568 223.542 415.821C223.793 416.074 224.134 416.218 224.49 416.22C227.49 416.17 228.89 416 232.66 416C234.97 416 241.48 416.24 244.66 416.24C247.84 416.24 247.77 413.08 246.41 412.79C240.34 411.5 236.14 409.73 233.99 408.04C233.619 407.747 233.163 407.582 232.69 407.57V407.57Z" fill="#2D3D45"/>
<path opacity="0.2" d="M225.66 390.81H233.29L232.77 399.91H225.15L225.66 390.81Z" fill="black"/>
<path d="M244.68 214.61C244.68 214.61 244.13 273.22 242.89 295.04C241.54 318.93 236 397.71 236 397.71H222C222 397.71 221.14 320.86 220.3 297.21C219.39 271.53 218.3 214.61 218.3 214.61H244.68Z" fill="#2D3D45"/>
<path d="M221.52 397.71H236.6L237.44 392.42L220.79 393.25L221.52 397.71Z" fill="#2D3D45"/>
<path d="M259.62 215.41L218.38 214.61C218.09 210.97 219.38 199.52 218.74 184.44C218.354 173.264 216.999 162.142 214.69 151.2V151.2C214.619 150.883 214.613 150.555 214.674 150.235C214.734 149.916 214.858 149.612 215.04 149.342C215.222 149.073 215.456 148.843 215.73 148.667C216.003 148.492 216.309 148.373 216.63 148.32C217.35 148.19 218.21 148.06 219.16 147.92C221.61 147.56 224.7 147.19 227.72 147.04C233.475 146.703 239.244 146.69 245 147C246.951 147.156 248.891 147.427 250.81 147.81C251.938 148.017 253.038 148.352 254.09 148.81C254.82 149.075 255.418 149.613 255.76 150.31C257.67 155.53 259.66 177.51 259.62 215.41Z" fill="#F0F0F0"/>
<path d="M222.9 159.06C221.5 161.4 220.01 163.96 218.65 166.45C217.29 168.94 215.91 171.45 214.65 174.04C213.39 176.63 212.2 179.15 211.11 181.71L210.32 183.62L209.61 185.53C209.36 186.17 209.18 186.8 208.98 187.43L208.67 188.37C208.617 188.541 208.574 188.715 208.54 188.89C208.355 190.045 208.245 191.211 208.21 192.38C208.21 193.71 208.21 195.1 208.21 196.5C208.27 199.32 208.46 202.21 208.66 205.1C208.86 207.99 209.11 210.92 209.39 213.84C209.67 216.76 209.95 219.7 210.24 222.58V222.65C210.357 223.74 210.054 224.834 209.392 225.709C208.731 226.583 207.762 227.173 206.681 227.358C205.6 227.542 204.49 227.308 203.576 226.703C202.661 226.098 202.012 225.167 201.76 224.1C200.31 218.2 199.14 212.34 198.15 206.34C197.66 203.34 197.26 200.34 196.94 197.21C196.79 195.65 196.66 194.07 196.6 192.43C196.506 190.632 196.567 188.829 196.78 187.04C196.83 186.57 196.98 185.87 197.09 185.38L197.39 184.18C197.6 183.38 197.79 182.57 198.03 181.81L198.74 179.5L199.51 177.24C200.57 174.274 201.737 171.377 203.01 168.55C204.28 165.73 205.6 162.96 207.01 160.23C208.42 157.5 209.85 154.86 211.5 152.11C212.454 150.68 213.922 149.673 215.599 149.298C217.277 148.923 219.034 149.208 220.506 150.096C221.978 150.983 223.051 152.404 223.503 154.062C223.954 155.721 223.749 157.489 222.93 159L222.9 159.06Z" fill="#2D3D45"/>
<path d="M244.21 147C239.21 145.81 238.29 142.7 238.63 139.27C238.707 138.412 238.841 137.56 239.03 136.72L232.72 131.48L228.08 127.64C229.37 133.22 230.82 143.38 227.08 147.11C230.803 149.709 235.261 151.045 239.8 150.92C247.19 150.59 244.21 147 244.21 147Z" fill="#CE7A63"/>
<path d="M239.48 150.88L238.8 149.2L234.6 151.71L239.48 150.88Z" fill="#E0E0E0"/>
<path d="M239.48 150.88L239.82 149.2L244.02 151.71L239.48 150.88Z" fill="#E0E0E0"/>
<path d="M227.37 146.05C231.026 147.595 234.869 148.654 238.8 149.2C237.482 150.797 236.419 152.588 235.65 154.51C233.82 154.02 225.8 149.12 224.03 146.76L227.37 146.05Z" fill="white"/>
<path d="M243 146.23C242.246 147.511 241.143 148.551 239.82 149.23C241.368 150.565 242.688 152.142 243.73 153.9C245.031 151.767 245.639 149.283 245.47 146.79L243 146.23Z" fill="white"/>
<path opacity="0.3" d="M227 145.39C227 145.39 221.45 146.59 216.75 148.03C215.094 148.538 213.664 149.601 212.701 151.04C211.737 152.479 211.299 154.206 211.46 155.93C212.46 166.07 217.06 184.47 217.15 192.25C217.26 201.96 219.3 220.25 219.3 220.25L240.09 224.54C240.09 224.54 242.63 152 227 145.39Z" fill="black"/>
<path opacity="0.3" d="M243.1 146.05C243.1 146.05 247.72 146.54 251.98 147.44C253.728 147.809 255.308 148.736 256.482 150.082C257.657 151.428 258.361 153.119 258.49 154.9C259.63 171.69 259.09 188.58 259.63 197.69C260.19 207.38 259.45 219.94 259.45 219.94L251.32 222.29C251.32 222.29 249.27 158.75 243.1 146.05Z" fill="black"/>
<path d="M227 145.39C227 145.39 221.45 146.59 216.75 148.03C215.094 148.538 213.664 149.601 212.701 151.04C211.737 152.479 211.299 154.206 211.46 155.93C212.46 166.07 215.46 184.58 215.53 192.36C215.65 202.07 214.58 219.02 214.58 219.02L238.19 221.29C238.19 221.29 242.63 152 227 145.39Z" fill="#2D3D45"/>
<path d="M243.1 146.05C243.1 146.05 247.72 146.54 251.98 147.44C253.728 147.809 255.308 148.736 256.482 150.082C257.657 151.428 258.361 153.119 258.49 154.9C259.63 171.69 260.32 188.51 260.85 197.62C261.42 207.31 261.47 219.36 261.47 219.36L251.87 220.28C251.87 220.28 249.27 158.75 243.1 146.05Z" fill="#2D3D45"/>
<path opacity="0.2" d="M239 136.67C238.811 137.51 238.677 138.362 238.6 139.22C236.24 138.75 233.1 136.22 232.77 133.84C232.657 133.042 232.631 132.234 232.69 131.43L239 136.67Z" fill="black"/>
<path d="M244.73 113.74C245.26 117.58 243.73 120.97 241.23 121.31C238.73 121.65 236.35 118.8 235.82 114.96C235.29 111.12 236.82 107.72 239.32 107.38C241.82 107.04 244.2 109.89 244.73 113.74Z" fill="#2D3D45"/>
<path d="M224.87 122C227.77 129 229.11 133.24 234.02 135.79C235.603 136.636 237.388 137.033 239.181 136.939C240.973 136.844 242.706 136.261 244.192 135.253C245.678 134.246 246.859 132.851 247.61 131.22C248.36 129.589 248.651 127.784 248.45 126C247.8 119.1 243.16 108.8 235.12 108.12C233.385 107.936 231.633 108.208 230.036 108.91C228.44 109.613 227.055 110.72 226.018 112.123C224.982 113.527 224.331 115.176 224.13 116.909C223.928 118.641 224.183 120.397 224.87 122V122Z" fill="#CE7A63"/>
<path d="M225.13 127.41C225.55 131.06 230.88 129.69 229.98 122.49C229.507 120.353 228.736 118.293 227.69 116.37C227.69 116.37 240.11 111.37 242.69 108.81C245.05 106.46 245.22 103.25 243.44 102.25C243.162 102.878 242.73 103.426 242.185 103.843C241.64 104.261 240.999 104.535 240.32 104.64C240.32 104.64 242.85 101.22 241.18 99.1602C240.733 100.346 239.952 101.376 238.932 102.127C237.911 102.878 236.695 103.317 235.43 103.39C231.06 103.9 226.03 102 222.78 106.81C220.19 110.64 216.32 109.21 217.92 114.56C212.92 117.84 216.61 121.06 218.78 122.28C220.95 123.5 224.9 125.4 225.13 127.41Z" fill="#2D3D45"/>
<path d="M218.6 114.5C218.6 114.5 215.23 113.92 216.08 109.87C212.72 113.67 215.26 115.41 218.6 114.5Z" fill="#2D3D45"/>
<path d="M224.56 129.89C225.999 131.1 227.81 131.778 229.69 131.81C232.06 131.81 232.19 129.56 230.69 127.71C229.3 126.05 226.4 124.06 224.45 124.97C222.5 125.88 222.75 128.37 224.56 129.89Z" fill="#CE7A63"/>
<path d="M236.51 120.62C236.71 121.21 237.18 121.62 237.57 121.46C237.96 121.3 238.1 120.78 237.9 120.2C237.7 119.62 237.22 119.2 236.84 119.36C236.46 119.52 236.31 120 236.51 120.62Z" fill="#2D3D45"/>
<path d="M243.15 118.59C243.35 119.17 243.82 119.59 244.21 119.43C244.6 119.27 244.74 118.75 244.54 118.17C244.34 117.59 243.87 117.17 243.48 117.33C243.09 117.49 243 118 243.15 118.59Z" fill="#2D3D45"/>
<path d="M241.14 119.53C242.457 121.095 243.977 122.477 245.66 123.64C245.345 124.05 244.943 124.384 244.483 124.619C244.023 124.854 243.516 124.985 243 125L241.14 119.53Z" fill="#BA4D3C"/>
<path d="M241.17 127.32C240.47 127.457 239.749 127.45 239.051 127.3C238.353 127.151 237.693 126.862 237.11 126.45C237.078 126.417 237.06 126.372 237.06 126.325C237.06 126.279 237.078 126.234 237.11 126.2C237.145 126.167 237.192 126.149 237.24 126.149C237.288 126.149 237.335 126.167 237.37 126.2C238.009 126.637 238.74 126.922 239.506 127.033C240.272 127.144 241.053 127.078 241.79 126.84C241.812 126.833 241.836 126.83 241.859 126.832C241.883 126.834 241.906 126.841 241.926 126.852C241.947 126.863 241.965 126.879 241.98 126.897C241.994 126.916 242.004 126.937 242.01 126.96C242.018 126.983 242.021 127.006 242.019 127.03C242.017 127.053 242.01 127.076 241.998 127.097C241.987 127.117 241.972 127.136 241.953 127.15C241.934 127.164 241.913 127.175 241.89 127.18C241.654 127.245 241.413 127.292 241.17 127.32V127.32Z" fill="#2D3D45"/>
<path d="M233.72 119.13C233.661 119.145 233.599 119.145 233.54 119.13C233.495 119.115 233.454 119.09 233.419 119.059C233.384 119.027 233.355 118.989 233.335 118.946C233.314 118.903 233.302 118.857 233.3 118.81C233.297 118.762 233.304 118.715 233.32 118.67C233.491 118.128 233.793 117.636 234.2 117.239C234.606 116.841 235.104 116.55 235.65 116.39C235.696 116.379 235.744 116.376 235.791 116.384C235.838 116.391 235.883 116.408 235.923 116.433C235.963 116.458 235.998 116.491 236.025 116.531C236.052 116.57 236.071 116.614 236.08 116.66C236.092 116.706 236.094 116.754 236.087 116.801C236.079 116.848 236.063 116.893 236.037 116.933C236.012 116.974 235.979 117.008 235.94 117.035C235.901 117.062 235.857 117.081 235.81 117.09C235.384 117.223 234.997 117.457 234.682 117.772C234.366 118.087 234.132 118.475 234 118.9C233.979 118.961 233.941 119.014 233.892 119.054C233.843 119.095 233.783 119.121 233.72 119.13V119.13Z" fill="#2D3D45"/>
<path d="M212.28 250.15C211.988 250.148 211.697 250.122 211.41 250.07V250.07L197.92 247.6C196.672 247.367 195.566 246.649 194.845 245.604C194.124 244.558 193.845 243.27 194.07 242.02L195.32 235.21C195.433 234.59 195.668 233.999 196.012 233.47C196.355 232.941 196.8 232.486 197.32 232.13C197.837 231.769 198.42 231.514 199.037 231.382C199.654 231.25 200.29 231.242 200.91 231.36L214.4 233.83C215.65 234.061 216.757 234.778 217.478 235.824C218.2 236.87 218.478 238.16 218.25 239.41L217 246.22C216.798 247.325 216.215 248.323 215.353 249.041C214.49 249.76 213.403 250.152 212.28 250.15V250.15ZM211.78 248.05C212.494 248.179 213.231 248.02 213.828 247.608C214.426 247.195 214.836 246.564 214.97 245.85L216.22 239.03C216.348 238.317 216.189 237.582 215.777 236.986C215.364 236.39 214.733 235.982 214.02 235.85L200.53 233.38C200.176 233.315 199.813 233.321 199.461 233.396C199.109 233.471 198.776 233.615 198.479 233.82C198.183 234.024 197.93 234.284 197.735 234.587C197.539 234.889 197.405 235.226 197.34 235.58L196.09 242.39C195.964 243.104 196.124 243.839 196.536 244.436C196.948 245.033 197.578 245.444 198.29 245.58L211.78 248.05Z" fill="#3771E7"/>
<path d="M233.131 243.686L184.885 234.839C181.875 234.288 178.988 236.28 178.437 239.29L173.235 267.657C172.684 270.666 174.676 273.553 177.685 274.105L225.931 282.951C228.941 283.503 231.828 281.51 232.379 278.501L237.581 250.134C238.133 247.124 236.14 244.237 233.131 243.686Z" fill="#2D3D45"/>
<path opacity="0.8" d="M233.131 243.686L184.885 234.839C181.875 234.288 178.988 236.28 178.437 239.29L173.235 267.657C172.684 270.666 174.676 273.553 177.685 274.105L225.931 282.951C228.941 283.503 231.828 281.51 232.379 278.501L237.581 250.134C238.133 247.124 236.14 244.237 233.131 243.686Z" fill="#3771E7"/>
<path d="M230.605 243.227L182.359 234.38C179.35 233.829 176.463 235.821 175.911 238.831L170.71 267.198C170.158 270.207 172.15 273.094 175.16 273.646L223.406 282.492C226.415 283.044 229.302 281.051 229.854 278.042L235.055 249.675C235.607 246.665 233.615 243.778 230.605 243.227Z" fill="#3771E7"/>
<path opacity="0.3" d="M231.85 243.43L181.16 234.14C180.04 233.938 178.886 234.188 177.949 234.834C177.012 235.481 176.369 236.471 176.16 237.59L173.38 252.79C173.176 253.91 173.424 255.066 174.071 256.003C174.718 256.941 175.71 257.583 176.83 257.79L198.13 261.69L197.82 263.37C197.789 263.555 197.794 263.744 197.837 263.926C197.88 264.109 197.958 264.281 198.068 264.432C198.178 264.584 198.317 264.713 198.477 264.81C198.637 264.907 198.815 264.972 199 265L202.79 265.69C203.158 265.757 203.539 265.676 203.848 265.465C204.157 265.253 204.37 264.928 204.44 264.56L204.74 262.89L227.56 267.07C228.68 267.274 229.836 267.026 230.773 266.379C231.711 265.732 232.353 264.74 232.56 263.62L235.35 248.42C235.545 247.294 235.286 246.138 234.63 245.202C233.974 244.267 232.975 243.63 231.85 243.43Z" fill="#2D3D45"/>
<path d="M225.39 265.18L174.44 255.84C173.917 255.756 173.42 255.559 172.981 255.263C172.542 254.967 172.173 254.579 171.899 254.127C171.625 253.674 171.453 253.167 171.394 252.641C171.336 252.115 171.392 251.582 171.56 251.08L175.72 237.38C176.071 236.293 176.799 235.367 177.772 234.769C178.746 234.171 179.902 233.941 181.03 234.12L232.03 243.46C232.552 243.545 233.05 243.742 233.489 244.038C233.928 244.334 234.297 244.721 234.571 245.174C234.845 245.627 235.017 246.134 235.076 246.66C235.134 247.186 235.078 247.718 234.91 248.22L230.75 261.92C230.394 263.015 229.658 263.946 228.675 264.544C227.691 265.143 226.526 265.368 225.39 265.18V265.18Z" fill="#3771E7"/>
<path d="M200.28 264.27L196.45 263.57C196.22 263.531 196.002 263.443 195.809 263.312C195.617 263.181 195.454 263.01 195.334 262.811C195.213 262.612 195.137 262.389 195.111 262.157C195.084 261.926 195.108 261.691 195.18 261.47L197.02 255.47C197.174 254.991 197.495 254.583 197.924 254.32C198.354 254.058 198.863 253.958 199.36 254.04L203.19 254.74C203.42 254.777 203.64 254.864 203.833 254.995C204.027 255.125 204.189 255.297 204.309 255.497C204.429 255.697 204.504 255.921 204.528 256.153C204.553 256.385 204.526 256.619 204.45 256.84L202.62 262.84C202.464 263.318 202.143 263.725 201.714 263.987C201.285 264.249 200.777 264.35 200.28 264.27V264.27Z" fill="white"/>
<path d="M245.23 115.46C245.173 115.472 245.113 115.468 245.057 115.451C245.001 115.433 244.951 115.402 244.91 115.36C244.598 115.015 244.212 114.746 243.78 114.573C243.349 114.399 242.884 114.327 242.42 114.36C242.373 114.37 242.325 114.371 242.278 114.361C242.231 114.352 242.187 114.333 242.147 114.306C242.108 114.279 242.075 114.244 242.049 114.203C242.024 114.163 242.007 114.117 242 114.07C241.985 113.976 242.007 113.88 242.061 113.802C242.115 113.724 242.197 113.669 242.29 113.65V113.65C242.866 113.587 243.449 113.659 243.992 113.86C244.535 114.062 245.024 114.387 245.42 114.81C245.454 114.844 245.48 114.883 245.498 114.927C245.517 114.971 245.526 115.018 245.526 115.065C245.526 115.112 245.517 115.159 245.498 115.203C245.48 115.247 245.454 115.287 245.42 115.32C245.373 115.385 245.306 115.434 245.23 115.46V115.46Z" fill="#2D3D45"/>
<path d="M210.3 224.63L212.58 231.94L203.17 230C203.17 230 201.72 223.23 205.28 222.77L208.61 223.2C209.001 223.245 209.37 223.405 209.671 223.66C209.972 223.914 210.19 224.252 210.3 224.63V224.63Z" fill="#CE7A63"/>
<path d="M208.07 237.63L203.97 236.86C203.685 236.807 203.414 236.697 203.173 236.536C202.931 236.376 202.724 236.17 202.564 235.928C202.403 235.687 202.293 235.416 202.239 235.131C202.185 234.846 202.189 234.554 202.25 234.27L203.17 230.01L212.58 231.94L210.43 236.43C210.224 236.863 209.881 237.215 209.454 237.432C209.027 237.649 208.541 237.719 208.07 237.63V237.63Z" fill="#CE7A63"/>
<path d="M297.09 68.8403H303.62V130.09H297.09C289.064 129.945 281.415 126.655 275.79 120.927C270.165 115.2 267.013 107.493 267.013 99.4653C267.013 91.4376 270.165 83.7307 275.79 78.0032C281.415 72.2757 289.064 68.9854 297.09 68.8403Z" fill="#3771E7"/>
<path opacity="0.1" d="M297.09 68.8403H303.62V130.09H297.09C289.064 129.945 281.415 126.655 275.79 120.927C270.165 115.2 267.013 107.493 267.013 99.4653C267.013 91.4376 270.165 83.7307 275.79 78.0032C281.415 72.2757 289.064 68.9854 297.09 68.8403Z" fill="black"/>
<path opacity="0.3" d="M303.63 107.47V110.24H268.43C268.078 109.335 267.777 108.41 267.53 107.47H303.63Z" fill="#2D3D45"/>
<path opacity="0.3" d="M273.29 118.72H303.63V130.09H297.09C292.525 130.095 288.018 129.076 283.899 127.108C279.78 125.14 276.155 122.274 273.29 118.72V118.72Z" fill="#2D3D45"/>
<path d="M317.28 130.84L316.87 129.9C318.717 129.091 320.488 128.117 322.16 126.99L322.73 127.84C321.008 129.003 319.184 130.007 317.28 130.84V130.84Z" fill="#3771E7"/>
<path d="M328.1 123.35L327.37 122.63C332.134 117.767 335.278 111.55 336.37 104.83L337.37 105C336.252 111.928 333.013 118.339 328.1 123.35V123.35Z" fill="#3771E7"/>
<path d="M330.859 113.465C338.589 98.4239 332.663 79.9645 317.622 72.2345C302.581 64.5046 284.121 70.4312 276.391 85.4721C268.662 100.513 274.588 118.972 289.629 126.702C304.67 134.432 323.129 128.506 330.859 113.465Z" fill="#3771E7"/>
<path d="M305.52 109.88L303 102C300.762 102.184 298.522 101.678 296.58 100.55C294.961 99.4698 293.767 97.862 293.2 96.0003C292.53 94.105 292.63 92.0222 293.48 90.2003C294.38 88.3344 295.952 86.8772 297.88 86.1203L297.27 84.2203L300 83.3003L300.61 85.2003C302.417 84.7738 304.315 84.953 306.01 85.7103C307.626 86.5282 308.927 87.857 309.71 89.4903L305.16 91.6303C304.866 91.0043 304.415 90.4653 303.851 90.0657C303.286 89.6661 302.628 89.4196 301.94 89.3503L304.3 96.6903C307.56 96.5403 309.95 96.9403 311.45 97.8803C313.034 98.9302 314.185 100.518 314.69 102.35C315.424 104.429 315.345 106.707 314.47 108.73C313.499 110.829 311.791 112.498 309.67 113.42L310.28 115.32L307.56 116.2L306.98 114.39C304.936 114.848 302.797 114.59 300.92 113.66C298.956 112.549 297.402 110.834 296.49 108.77L301.23 106.67C301.701 107.553 302.368 108.316 303.18 108.9C303.869 109.411 304.672 109.747 305.52 109.88V109.88ZM299.19 90.1703C298.557 90.6215 298.084 91.2624 297.84 92.0003C297.595 92.7132 297.595 93.4873 297.84 94.2003C298.04 94.8658 298.446 95.4506 299 95.8703C299.667 96.3426 300.454 96.6165 301.27 96.6603L299.19 90.1703ZM308.33 109.27C309.169 108.844 309.831 108.136 310.2 107.27C310.568 106.404 310.603 105.432 310.3 104.54C310.063 103.747 309.553 103.063 308.86 102.61C307.99 102.123 306.993 101.91 306 102L308.33 109.27Z" fill="white"/>
<path opacity="0.1" d="M280.78 89.4399C284.029 83.9911 289.232 79.9847 295.33 78.2355C301.428 76.4864 307.964 77.1259 313.607 80.024C319.25 82.9222 323.578 87.8612 325.709 93.8365C327.84 99.8118 327.615 106.375 325.08 112.19C326.826 109.262 327.954 106.007 328.393 102.626C328.832 99.2447 328.574 95.8095 327.634 92.5323C326.694 89.2551 325.092 86.2053 322.927 83.5712C320.763 80.937 318.081 78.7745 315.049 77.217C312.016 75.6595 308.696 74.7401 305.294 74.5156C301.892 74.2911 298.48 74.7661 295.269 75.9115C292.058 77.0569 289.115 78.8483 286.623 81.1751C284.131 83.5019 282.143 86.3147 280.78 89.4399Z" fill="black"/>
<path opacity="0.3" d="M333.25 72.2802C332.751 72.4105 332.295 72.6721 331.931 73.0379C331.567 73.4037 331.308 73.8602 331.18 74.3602C331.139 74.4595 331.07 74.5445 330.981 74.6044C330.892 74.6643 330.787 74.6962 330.68 74.6962C330.573 74.6962 330.468 74.6643 330.379 74.6044C330.29 74.5445 330.22 74.4595 330.18 74.3602C330.051 73.859 329.79 73.4016 329.424 73.0357C329.059 72.6699 328.601 72.4089 328.1 72.2802C328.001 72.2396 327.916 72.1704 327.856 72.0814C327.796 71.9923 327.764 71.8875 327.764 71.7802C327.764 71.6729 327.796 71.568 327.856 71.479C327.916 71.3899 328.001 71.3207 328.1 71.2802C328.6 71.1523 329.056 70.8928 329.422 70.5288C329.788 70.1648 330.05 69.7095 330.18 69.2102C330.216 69.1066 330.284 69.0169 330.374 68.9535C330.463 68.89 330.57 68.856 330.68 68.856C330.79 68.856 330.897 68.89 330.986 68.9535C331.076 69.0169 331.144 69.1066 331.18 69.2102C331.309 69.7083 331.57 70.1628 331.933 70.5267C332.297 70.8906 332.752 71.1507 333.25 71.2802C333.354 71.3166 333.443 71.3842 333.507 71.4738C333.57 71.5634 333.604 71.6704 333.604 71.7802C333.604 71.8899 333.57 71.997 333.507 72.0866C333.443 72.1761 333.354 72.2438 333.25 72.2802V72.2802Z" fill="#3771E7"/>
<path opacity="0.2" d="M281.13 132.59C280.749 132.686 280.4 132.884 280.122 133.162C279.844 133.44 279.646 133.789 279.55 134.17C279.524 134.25 279.473 134.32 279.405 134.369C279.336 134.418 279.254 134.445 279.17 134.445C279.086 134.445 279.004 134.418 278.935 134.369C278.867 134.32 278.816 134.25 278.79 134.17C278.694 133.79 278.497 133.443 278.221 133.165C277.945 132.888 277.599 132.689 277.22 132.59C277.14 132.564 277.07 132.513 277.021 132.445C276.971 132.376 276.945 132.294 276.945 132.21C276.945 132.126 276.971 132.044 277.021 131.975C277.07 131.907 277.14 131.856 277.22 131.83C277.598 131.732 277.943 131.535 278.219 131.259C278.495 130.983 278.692 130.638 278.79 130.26C278.816 130.18 278.867 130.11 278.935 130.061C279.004 130.011 279.086 129.985 279.17 129.985C279.254 129.985 279.336 130.011 279.405 130.061C279.473 130.11 279.524 130.18 279.55 130.26C279.649 130.639 279.848 130.985 280.125 131.261C280.403 131.537 280.75 131.734 281.13 131.83C281.21 131.856 281.28 131.907 281.329 131.975C281.378 132.044 281.405 132.126 281.405 132.21C281.405 132.294 281.378 132.376 281.329 132.445C281.28 132.513 281.21 132.564 281.13 132.59V132.59Z" fill="#3771E7"/>
<path opacity="0.4" d="M276.47 68.5101C275.797 68.6821 275.184 69.0319 274.693 69.5228C274.202 70.0137 273.852 70.6275 273.68 71.3001C273.631 71.4413 273.539 71.5637 273.417 71.6503C273.295 71.7369 273.149 71.7834 273 71.7834C272.851 71.7834 272.705 71.7369 272.583 71.6503C272.461 71.5637 272.369 71.4413 272.32 71.3001C272.149 70.6288 271.8 70.0157 271.311 69.525C270.822 69.0342 270.211 68.6837 269.54 68.5101C269.398 68.4636 269.273 68.3733 269.186 68.2521C269.098 68.1308 269.05 67.9849 269.05 67.8351C269.05 67.6853 269.098 67.5393 269.186 67.4181C269.273 67.2968 269.398 67.2065 269.54 67.1601C270.21 66.9845 270.821 66.6334 271.309 66.1429C271.798 65.6525 272.147 65.0404 272.32 64.3701C272.369 64.2289 272.461 64.1065 272.583 64.0199C272.705 63.9333 272.851 63.8867 273 63.8867C273.149 63.8867 273.295 63.9333 273.417 64.0199C273.539 64.1065 273.631 64.2289 273.68 64.3701C273.853 65.0421 274.203 65.6555 274.694 66.1462C275.185 66.6369 275.798 66.987 276.47 67.1601C276.612 67.2065 276.736 67.2968 276.824 67.4181C276.912 67.5393 276.96 67.6853 276.96 67.8351C276.96 67.9849 276.912 68.1308 276.824 68.2521C276.736 68.3733 276.612 68.4636 276.47 68.5101V68.5101Z" fill="#3771E7"/>
</svg>
