<svg  viewBox="0 0 500 500" fill="none" xmlns="http://www.w3.org/2000/svg">
<path d="M165.85 147.91C157.62 152.81 149.06 157.27 140.72 162.15C102.33 184.61 70.72 214.74 66.85 260.89C64 294.68 74.66 334 104.38 353.55C111.717 358.355 119.903 361.715 128.5 363.45C140.63 365.92 153.5 364.95 165.85 364.24V147.91Z" fill="#3771E7"/>
<path d="M344.07 99.8501H224.88C217.205 104.638 210.008 110.153 203.39 116.32H367.2C359.979 110.174 352.24 104.664 344.07 99.8501Z" fill="#3771E7"/>
<path d="M338.5 96.75C329.867 92.1204 320.761 88.4325 311.34 85.75C282.83 77.75 254.6 83.08 230.17 96.75H338.5Z" fill="#3771E7"/>
<path d="M408.37 164.53C398.022 147.796 385.36 132.609 370.76 119.42H260.29V378.74C268.541 381.491 276.984 383.63 285.55 385.14C341.88 394.14 404.9 374.09 426.74 317.33C446.33 266.45 436.59 209.83 408.37 164.53Z" fill="#3771E7"/>
<path d="M253.52 119.42H200.14C197.933 121.6 195.787 123.843 193.7 126.15C187.476 132.902 180.388 138.803 172.62 143.7V363.9C191.916 363.176 211.221 365.091 230 369.59C238 371.5 245.72 374.04 253.48 376.59L253.52 119.42Z" fill="#3771E7"/>
<g opacity="0.8">
<path opacity="0.8" d="M165.85 147.91C157.62 152.81 149.06 157.27 140.72 162.15C102.33 184.61 70.72 214.74 66.85 260.89C64 294.68 74.66 334 104.38 353.55C111.717 358.355 119.903 361.715 128.5 363.45C140.63 365.92 153.5 364.95 165.85 364.24V147.91Z" fill="white"/>
<path opacity="0.8" d="M344.07 99.8501H224.88C217.205 104.638 210.008 110.153 203.39 116.32H367.2C359.979 110.174 352.24 104.664 344.07 99.8501Z" fill="white"/>
<path opacity="0.8" d="M338.5 96.75C329.867 92.1204 320.761 88.4325 311.34 85.75C282.83 77.75 254.6 83.08 230.17 96.75H338.5Z" fill="white"/>
<path opacity="0.8" d="M408.37 164.53C398.022 147.796 385.36 132.609 370.76 119.42H260.29V378.74C268.541 381.491 276.984 383.63 285.55 385.14C341.88 394.14 404.9 374.09 426.74 317.33C446.33 266.45 436.59 209.83 408.37 164.53Z" fill="white"/>
<path opacity="0.8" d="M253.52 119.42H200.14C197.933 121.6 195.787 123.843 193.7 126.15C187.476 132.902 180.388 138.803 172.62 143.7V363.9C191.916 363.176 211.221 365.091 230 369.59C238 371.5 245.72 374.04 253.48 376.59L253.52 119.42Z" fill="white"/>
</g>
<path d="M214.32 128.27H199.77V131.44V150.1V153.28H230.63V131.44H215.35L214.32 128.27Z" fill="#3771E7"/>
<path d="M214.32 175.86H199.77V179.03V197.69V200.87H230.63V179.03H215.35L214.32 175.86Z" fill="#3771E7"/>
<path d="M214.32 223.45H199.77V226.62V245.28V248.46H230.63V226.62H215.35L214.32 223.45Z" fill="#3771E7"/>
<path d="M214.32 271.04H199.77V274.21V292.87V296.05H230.63V274.21H215.35L214.32 271.04Z" fill="#3771E7"/>
<path d="M214.32 318.63H199.77V321.81V340.46V343.64H230.63V321.81H215.35L214.32 318.63Z" fill="#3771E7"/>
<path d="M307.6 128.27H293.05V131.44V150.1V153.28H323.92V131.44H308.64L307.6 128.27Z" fill="#3771E7"/>
<path d="M368.13 131.44L367.09 128.27H352.54V131.44V150.1V153.28H383.4V131.44H368.13Z" fill="#3771E7"/>
<path d="M307.6 175.86H293.05V179.03V197.69V200.87H323.92V179.03H308.64L307.6 175.86Z" fill="#3771E7"/>
<path d="M367.09 223.45H352.54V226.62V245.28V248.46H383.4V226.62H368.13L367.09 223.45Z" fill="#3771E7"/>
<path d="M367.09 175.86H352.54V179.03V197.69V200.87H383.4V179.03H368.13L367.09 175.86Z" fill="#3771E7"/>
<path d="M307.6 223.45H293.05V226.62V245.28V248.46H323.92V226.62H308.64L307.6 223.45Z" fill="#3771E7"/>
<path d="M307.6 271.04H293.05V274.21V292.87V296.05H323.92V274.21H308.64L307.6 271.04Z" fill="#3771E7"/>
<path d="M367.09 271.04H352.54V274.21V292.87V296.05H383.4V274.21H368.13L367.09 271.04Z" fill="#3771E7"/>
<path d="M307.6 318.63H293.05V321.81V340.46V343.64H323.92V321.81H308.64L307.6 318.63Z" fill="#3771E7"/>
<path d="M367.09 318.63H352.54V321.81V340.46V343.64H383.4V321.81H368.13L367.09 318.63Z" fill="#3771E7"/>
<g opacity="0.5">
<path opacity="0.5" d="M214.32 128.27H199.77V131.44V150.1V153.28H230.63V131.44H215.35L214.32 128.27Z" fill="white"/>
<path opacity="0.5" d="M214.32 175.86H199.77V179.03V197.69V200.87H230.63V179.03H215.35L214.32 175.86Z" fill="white"/>
<path opacity="0.5" d="M214.32 223.45H199.77V226.62V245.28V248.46H230.63V226.62H215.35L214.32 223.45Z" fill="white"/>
<path opacity="0.5" d="M214.32 271.04H199.77V274.21V292.87V296.05H230.63V274.21H215.35L214.32 271.04Z" fill="white"/>
<path opacity="0.5" d="M214.32 318.63H199.77V321.81V340.46V343.64H230.63V321.81H215.35L214.32 318.63Z" fill="white"/>
<path opacity="0.5" d="M307.6 128.27H293.05V131.44V150.1V153.28H323.92V131.44H308.64L307.6 128.27Z" fill="white"/>
<path opacity="0.5" d="M368.13 131.44L367.09 128.27H352.54V131.44V150.1V153.28H383.4V131.44H368.13Z" fill="white"/>
<path opacity="0.5" d="M307.6 175.86H293.05V179.03V197.69V200.87H323.92V179.03H308.64L307.6 175.86Z" fill="white"/>
<path opacity="0.5" d="M367.09 223.45H352.54V226.62V245.28V248.46H383.4V226.62H368.13L367.09 223.45Z" fill="white"/>
<path opacity="0.5" d="M367.09 175.86H352.54V179.03V197.69V200.87H383.4V179.03H368.13L367.09 175.86Z" fill="white"/>
<path opacity="0.5" d="M307.6 223.45H293.05V226.62V245.28V248.46H323.92V226.62H308.64L307.6 223.45Z" fill="white"/>
<path opacity="0.5" d="M307.6 271.04H293.05V274.21V292.87V296.05H323.92V274.21H308.64L307.6 271.04Z" fill="white"/>
<path opacity="0.5" d="M367.09 271.04H352.54V274.21V292.87V296.05H383.4V274.21H368.13L367.09 271.04Z" fill="white"/>
<path opacity="0.5" d="M307.6 318.63H293.05V321.81V340.46V343.64H323.92V321.81H308.64L307.6 318.63Z" fill="white"/>
<path opacity="0.5" d="M367.09 318.63H352.54V321.81V340.46V343.64H383.4V321.81H368.13L367.09 318.63Z" fill="white"/>
</g>
<path d="M216.5 432C244.39 432 267 427.299 267 421.5C267 415.701 244.39 411 216.5 411C188.61 411 166 415.701 166 421.5C166 427.299 188.61 432 216.5 432Z" fill="#3771E7"/>
<path opacity="0.5" d="M216.5 432C244.39 432 267 427.299 267 421.5C267 415.701 244.39 411 216.5 411C188.61 411 166 415.701 166 421.5C166 427.299 188.61 432 216.5 432Z" fill="white"/>
<path d="M253.92 198.54C253.92 198.54 253.72 193.19 253.72 187.63C253.72 182.07 256.6 180.84 258.45 180.84C259.348 180.812 260.246 180.879 261.13 181.04C261.13 181.04 262.13 172.19 268.75 170.75C275.37 169.31 280.28 174.66 282.54 172.81C284.8 170.96 277.19 171.16 280.48 168.49C283.77 165.82 293.25 165.6 294.28 175.49C295.31 185.38 288.51 189.9 285.22 190.72C281.93 191.54 277.39 185.57 273.07 185.78C268.75 185.99 269.37 190.93 266.69 192.99C264.01 195.05 261.95 193.99 261.95 196.69C261.95 199.39 260.72 200.81 257.42 201.01C254.12 201.21 253.92 198.54 253.92 198.54Z" fill="#2D3D45" stroke="#2D3D45" stroke-linecap="round" stroke-linejoin="round"/>
<path d="M284.43 182.62C284.43 182.62 287.64 184.1 291.83 181.39C296.02 178.68 293.3 172.52 292.57 172.27" stroke="white" stroke-linecap="round" stroke-linejoin="round"/>
<path d="M265.7 181.14C265.7 181.14 267.18 174.73 272.35 174.98C277.52 175.23 276.79 179.91 281.23 181.39" stroke="white" stroke-linecap="round" stroke-linejoin="round"/>
<path d="M263 185.16C263 185.16 260 182.16 257.34 182.87C254.68 183.58 255.86 188.29 256.11 189.77C256.36 191.25 254.38 195.44 254.38 195.44" stroke="white" stroke-linecap="round" stroke-linejoin="round"/>
<path d="M193.47 202.05L200.91 228.61L212.82 228.11L205.87 201.31L193.47 202.05Z" fill="#2D3D45" stroke="#2D3D45" stroke-linecap="round" stroke-linejoin="round"/>
<path d="M213.07 251.69L209.84 253.42C209.84 253.42 205.84 241.01 204.14 236.3C202.44 231.59 201.9 229.6 201.9 229.6H201.98C202.83 229.109 203.499 228.358 203.89 227.458C204.28 226.558 204.372 225.556 204.15 224.6L203.58 222.07C203.667 222.301 203.806 222.509 203.987 222.676C204.169 222.843 204.387 222.966 204.624 223.034C204.861 223.102 205.111 223.114 205.353 223.068C205.596 223.022 205.824 222.92 206.02 222.77C206.85 222.23 205.97 216.77 204.97 214.77C203.97 212.77 200.66 214.24 199.67 214.77C198.941 215.177 198.269 215.678 197.67 216.26L196.93 213.26C196.93 213.26 200.65 213.01 201.4 213.01C202.15 213.01 204.87 210.53 203.63 210.28C202.39 210.03 195.44 210.03 193.7 211.52C191.96 213.01 194.94 218.97 195.44 220.21C195.94 221.45 198.44 234.11 199.44 237.58C200.44 241.05 202.92 266.58 204.44 268.85C205.96 271.12 217 260.62 217 260.62L213.07 251.69Z" fill="white" stroke="#2D3D45" stroke-linecap="round" stroke-linejoin="round"/>
<path d="M198.52 218.05C198.52 218.05 202.01 215.05 205.15 215.79" stroke="#2D3D45" stroke-linecap="round" stroke-linejoin="round"/>
<path d="M199.57 221C200.32 220.234 201.215 219.624 202.201 219.205C203.188 218.787 204.248 218.567 205.32 218.56" stroke="#2D3D45" stroke-linecap="round" stroke-linejoin="round"/>
<path d="M239.51 219.75C239.51 219.75 234.91 224.14 232.92 227.86C230.93 231.58 212.08 251.69 212.08 251.69L217.54 270.3L230.94 258.88C230.94 258.88 238.38 244.49 240.37 235.31C242.36 226.13 244.12 219.58 239.51 219.75Z" fill="#3771E7" stroke="#2D3D45" stroke-linecap="round" stroke-linejoin="round"/>
<path d="M280.69 224.69C280.69 224.69 266.07 223.45 257.84 222.22C249.61 220.99 240.54 218.72 239.51 219.75C238.48 220.78 232.02 253.12 225.72 266.07C217.38 283.22 211.64 292.31 211.64 292.31C217.423 290.088 223.709 289.51 229.8 290.64C240.09 292.49 256.11 303.43 256.11 303.43C256.11 303.43 263.81 286.86 272.04 270.19C280.27 253.52 284.6 228.6 284.6 227.19C284.6 225.78 281.92 224.48 280.69 224.69Z" fill="#3771E7" stroke="#2D3D45" stroke-linecap="round" stroke-linejoin="round"/>
<path d="M274.43 224.12C269.43 223.65 262.59 222.93 257.84 222.22C257.14 222.12 256.45 222 255.75 221.89C254.764 224.649 254.149 227.528 253.92 230.45C253.51 236.45 257.01 243.01 259.69 243.01C262.37 243.01 270.6 231.9 272.45 228.81C273.366 227.367 274.035 225.782 274.43 224.12Z" fill="white" stroke="#2D3D45" stroke-linecap="round" stroke-linejoin="round"/>
<path d="M260.92 210.69C260.92 210.69 258.87 221.19 257.22 225.51C255.57 229.83 257.42 237.45 259.48 237.66C261.54 237.87 269.78 227.16 269.78 227.16L272.66 215.22C272.66 215.22 262.16 212.34 260.92 210.69Z" fill="white" stroke="#2D3D45" stroke-linecap="round" stroke-linejoin="round"/>
<path d="M282.56 225.13C283.658 225.302 284.7 225.728 285.605 226.374C286.509 227.02 287.25 227.868 287.77 228.85C289.77 232.33 309.61 265.33 309.61 265.33L296.2 268.81L277.59 252.18C277.59 252.18 273.13 246.47 278.09 236.3" fill="#3771E7"/>
<path d="M282.56 225.13C283.658 225.302 284.7 225.728 285.605 226.374C286.509 227.02 287.25 227.868 287.77 228.85C289.77 232.33 309.61 265.33 309.61 265.33L296.2 268.81L277.59 252.18C277.59 252.18 273.13 246.47 278.09 236.3" stroke="#2D3D45" stroke-linecap="round" stroke-linejoin="round"/>
<path d="M243.84 256.4C243.84 256.4 239.13 260.62 238.84 261.61C238.55 262.6 241.32 266.61 242.07 266.82C242.82 267.03 243.07 264.82 242.81 263.82C242.55 262.82 242.07 261.33 242.07 261.33L244.79 258.11C244.79 258.11 245.83 256.9 243.84 256.4Z" fill="white" stroke="#2D3D45" stroke-linecap="round" stroke-linejoin="round"/>
<path d="M304.39 257.39C301.387 256.285 298.197 255.778 295 255.9C289.79 256.15 278.87 258.9 271.92 259.13C264.97 259.36 265.22 259.63 261.5 258.63C257.78 257.63 250.09 251.69 248.35 251.69C246.61 251.69 241.4 260.37 242.15 261.36C242.9 262.35 249.09 267.07 250.83 267.36C252.57 267.65 256.29 265.36 256.29 265.36C256.29 265.36 274.9 268.09 283.59 269.09C292.28 270.09 302.95 271.32 307.16 268.59C311.37 265.86 310.1 259.87 304.39 257.39Z" fill="white" stroke="#2D3D45" stroke-linecap="round" stroke-linejoin="round"/>
<path d="M248.31 254.66L243.59 262.11" stroke="#2D3D45" stroke-linecap="round" stroke-linejoin="round"/>
<path d="M251.78 257.39L246.32 264.84" stroke="#2D3D45" stroke-linecap="round" stroke-linejoin="round"/>
<path d="M254.27 260.62L249.55 266.33" stroke="#2D3D45" stroke-linecap="round" stroke-linejoin="round"/>
<path d="M256.25 265.33L255.75 263.6L253.27 265.09" stroke="#2D3D45" stroke-linecap="round" stroke-linejoin="round"/>
<path d="M285.63 197.72C285.63 197.72 287.69 196.28 288.1 200.19C288.51 204.1 287.1 206.78 286.04 207.4C284.98 208.02 283.78 206.98 283.78 206.98L285.63 197.72Z" fill="white" stroke="#2D3D45" stroke-linecap="round" stroke-linejoin="round"/>
<path d="M256 198.34C256 198.34 252.71 194.01 250.86 197.72C249.01 201.43 250.44 206.16 252.92 208.01C255.4 209.86 257.86 207.19 257.86 207.19C257.86 207.19 263.21 218.1 267.74 218.51C272.27 218.92 280.74 215.63 283.8 209.25C286.86 202.87 286.47 192.57 286.88 188.66C287.29 184.75 282.97 179.81 274.94 179.81C272.677 179.755 270.43 180.207 268.364 181.132C266.298 182.058 264.465 183.434 263 185.16C263.305 185.318 263.569 185.544 263.773 185.821C263.976 186.098 264.113 186.418 264.173 186.757C264.233 187.095 264.214 187.443 264.118 187.773C264.023 188.103 263.852 188.406 263.62 188.66C261.97 190.93 259.92 192.37 259.3 193.81C258.68 195.25 259.3 196.69 258.47 197.93C257.64 199.17 256 198.34 256 198.34Z" fill="white" stroke="#2D3D45" stroke-linecap="round" stroke-linejoin="round"/>
<path d="M274.65 191.77C274.47 192.92 273.89 193.77 273.36 193.71C272.83 193.65 272.53 192.62 272.71 191.47C272.89 190.32 273.47 189.47 274 189.53C274.53 189.59 274.83 190.61 274.65 191.77Z" fill="#2D3D45"/>
<path d="M282.88 194C282.7 195.16 282.12 196 281.59 195.94C281.06 195.88 280.76 194.86 280.94 193.7C281.12 192.54 281.7 191.7 282.23 191.76C282.76 191.82 283.06 192.88 282.88 194Z" fill="#2D3D45"/>
<path d="M270.58 186.94C270.58 186.94 273.15 183.94 276.47 185.58" stroke="#2D3D45" stroke-linecap="round" stroke-linejoin="round"/>
<path d="M281.46 188C281.46 188 285.23 186.64 285.99 191.78" stroke="#2D3D45" stroke-linecap="round" stroke-linejoin="round"/>
<path d="M279.8 191.92C279.8 191.92 278.44 194.49 278.74 195.24C279.04 195.99 282.82 196.9 281.61 197.96C280.4 199.02 277.38 200.23 276.47 199.62" stroke="#2D3D45" stroke-linecap="round" stroke-linejoin="round"/>
<path d="M268.47 200.07C268.47 200.07 269.53 203.7 274.36 204.45" stroke="#2D3D45" stroke-linecap="round" stroke-linejoin="round"/>
<path d="M213.42 290.64C213.42 290.64 207.9 296.15 199.97 304.43C192.04 312.71 171.69 340.64 173.76 350C175.83 359.36 226.87 373.45 226.87 373.45L232.38 369.66C232.38 369.66 201.69 346.9 199.62 341.72C197.55 336.54 224.11 319.65 224.11 319.65L253.77 300.65C253.77 300.65 240.49 278.22 213.42 290.64Z" fill="#2D3D45" stroke="#2D3D45" stroke-linecap="round" stroke-linejoin="round"/>
<path d="M250.66 276.84C250.66 276.84 257.21 287.84 256.52 300.98C255.83 314.12 250.66 325.81 237.9 325.47C225.14 325.13 226.18 305.81 230.32 296.15C234.46 286.49 235.14 273.74 250.66 276.84Z" fill="#2D3D45" stroke="#2D3D45" stroke-linecap="round" stroke-linejoin="round"/>
<path d="M232 283.39C232 283.39 224.76 316.84 221.31 323.39C217.86 329.94 211.65 345.8 211.65 345.8L219.24 347.87C219.24 347.87 229.93 333.04 242.69 317.52C255.45 302 253.38 281.31 250.62 276.83C247.86 272.35 237.21 272.7 232 283.39Z" fill="#2D3D45" stroke="#2D3D45" stroke-linecap="round" stroke-linejoin="round"/>
<path d="M252.56 290C252.56 290 246.87 313.79 239.11 323.62" stroke="white" stroke-linecap="round" stroke-linejoin="round"/>
<path d="M226.87 373.4C226.87 373.4 227.87 378.92 225.87 382.71C223.87 386.5 218.97 394.44 222.42 394.78C225.87 395.12 230.7 389.95 234.15 385.78C237.6 381.61 237.94 377.84 240.36 374.78C242.78 371.72 232.42 369.61 232.42 369.61L227.9 372L226.87 373.4Z" fill="#3771E7" stroke="#2D3D45" stroke-linecap="round" stroke-linejoin="round"/>
<path d="M240.32 374.78C241.14 373.72 240.47 372.78 239.23 372C236.832 377.236 233.903 382.212 230.49 386.85C226.88 391.54 223.55 392.85 221.2 393C221.13 394 221.43 394.69 222.38 394.78C225.83 395.13 230.66 389.95 234.11 385.78C237.56 381.61 237.9 377.88 240.32 374.78Z" fill="white" stroke="#2D3D45" stroke-linecap="round" stroke-linejoin="round"/>
<path d="M211.69 345.81C207.43 345.251 203.326 343.844 199.62 341.67C194.11 338.23 193.07 338.23 193.07 344.43C193.07 350.63 200.66 353.74 204.8 356.85C208.94 359.96 211.35 361.68 214.45 361.33C217.55 360.98 219.28 347.88 219.28 347.88C219.28 347.88 217.56 344.43 211.69 345.81Z" fill="#3771E7" stroke="#2D3D45" stroke-linecap="round" stroke-linejoin="round"/>
<path d="M193.07 344.43C193.07 350.64 200.66 353.74 204.8 356.85C208.94 359.96 211.31 361.64 214.37 361.33C207.14 356.73 206.37 349.33 199.62 341.67C194.11 338.23 193.07 338.23 193.07 344.43Z" fill="white" stroke="#2D3D45" stroke-linecap="round" stroke-linejoin="round"/>
<path d="M209.8 353.4C208.021 350.012 205.974 346.772 203.68 343.71C202.27 343.166 200.911 342.496 199.62 341.71C194.11 338.27 193.07 338.27 193.07 344.47C193.07 350.67 200.66 353.78 204.8 356.89C208.94 360 211.35 361.72 214.45 361.37C215.21 361.29 215.88 360.44 216.45 359.21C214.972 358.811 213.605 358.081 212.453 357.074C211.3 356.067 210.393 354.81 209.8 353.4V353.4Z" stroke="#2D3D45" stroke-linecap="round" stroke-linejoin="round"/>
<path d="M106.91 236.65C106.91 236.15 107 235.65 107.05 235.16" stroke="#2D3D45" stroke-miterlimit="10"/>
<path d="M107.39 232.19C111.806 196.917 128.923 164.461 155.539 140.896C182.155 117.33 216.445 104.271 251.994 104.16C287.543 104.05 321.914 116.897 348.675 140.296C375.437 163.696 392.755 196.045 397.39 231.29" stroke="#2D3D45" stroke-miterlimit="10" stroke-dasharray="2.98 2.98"/>
<path d="M397.6 232.78C397.66 233.27 397.72 233.78 397.77 234.27" stroke="#2D3D45" stroke-miterlimit="10"/>
<path d="M126.69 135.28L113.75 175.63L165 183.39L173.8 146.14C173.8 146.14 142.72 144.07 126.69 135.28Z" fill="white" stroke="#2D3D45" stroke-linecap="round" stroke-linejoin="round"/>
<path d="M180 109.41C180 109.41 204.31 112 221.9 100.1C221.9 100.1 243.62 117.17 251.9 118.73C251.9 118.73 238.97 132.73 225.52 136.83C225.49 136.83 192.38 121.83 180 109.41Z" fill="white" stroke="#2D3D45" stroke-linecap="round" stroke-linejoin="round"/>
<path d="M180 109.41C183.569 106.702 187.652 104.749 192 103.67C192.444 111.083 195.375 118.129 200.32 123.67C200.32 123.67 185.29 115.56 180 109.41Z" fill="#2D3D45" stroke="#2D3D45" stroke-linecap="round" stroke-linejoin="round"/>
<path d="M276 126.4C276 126.4 275.14 128.99 280.31 133.3C282.66 135.3 287.96 136.04 287.96 136.04L301.86 118.64C301.86 118.64 279.05 121.74 276 126.4Z" fill="#2D3D45" stroke="#2D3D45" stroke-linecap="round" stroke-linejoin="round"/>
<path d="M276 126.4C283.646 123.764 291.706 122.537 299.79 122.78C303.644 122.968 307.419 123.936 310.888 125.625C314.357 127.315 317.447 129.691 319.97 132.61L334.97 113.98C334.97 113.98 322 102.09 307.5 102.6C293 103.11 277 122.26 276 126.4Z" fill="white" stroke="#2D3D45" stroke-linecap="round" stroke-linejoin="round"/>
<path d="M363.15 136.35C363.15 136.35 353.84 160.84 333.5 164.29C333.5 164.29 353.84 188.43 365.22 191.19C365.22 191.19 388.33 180.84 394.54 169.81C394.54 169.81 374.19 158.08 363.15 136.35Z" fill="white" stroke="#2D3D45" stroke-linecap="round" stroke-linejoin="round"/>
<path d="M141.17 261.09L150.21 222.78H89.53L88.24 261.09H141.17Z" fill="#2D3D45" stroke="#2D3D45" stroke-linecap="round" stroke-linejoin="round"/>
<path d="M96.34 208.59L96.15 252.59L141.55 257.2L144.97 210.42L96.34 208.59Z" fill="white" stroke="#2D3D45" stroke-linecap="round" stroke-linejoin="round"/>
<path d="M81.35 215.9L88.24 261.09H141.17L137.73 220.2H109.33L106.74 215.04L81.35 215.9Z" fill="#3771E7" stroke="#2D3D45" stroke-linecap="round" stroke-linejoin="round"/>
<path d="M369.11 261.09L360.07 222.78H420.75L422.04 261.09H369.11Z" fill="#2D3D45" stroke="#2D3D45" stroke-linecap="round" stroke-linejoin="round"/>
<path d="M413.94 208.59L414.13 252.59L368.73 257.2L365.31 210.42L413.94 208.59Z" fill="white" stroke="#2D3D45" stroke-linecap="round" stroke-linejoin="round"/>
<path d="M428.93 215.9L422.04 261.09H369.11L372.55 220.2H400.96L403.54 215.04L428.93 215.9Z" fill="#3771E7" stroke="#2D3D45" stroke-linecap="round" stroke-linejoin="round"/>
</svg>
