<svg  viewBox="0 0 725 725" fill="none" xmlns="http://www.w3.org/2000/svg">
<path d="M662.099 496.987L68.44 455.169" stroke="white" stroke-miterlimit="10"/>
<path d="M98.9045 456.953V390.151" stroke="white" stroke-miterlimit="10"/>
<path d="M155.02 460.52V395.502" stroke="white" stroke-miterlimit="10"/>
<path d="M220.037 465.856V399.069" stroke="white" stroke-miterlimit="10"/>
<path d="M292.189 471.206V400.838" stroke="white" stroke-miterlimit="10"/>
<path d="M366.995 475.658V400.838" stroke="white" stroke-miterlimit="10"/>
<path d="M441.815 479.225V407.972" stroke="white" stroke-miterlimit="10"/>
<path d="M521.551 489.418V412.423" stroke="white" stroke-miterlimit="10"/>
<path d="M611.929 492.579V418.658" stroke="white" stroke-miterlimit="10"/>
<path d="M662.099 507.399L66.526 463.203" stroke="white" stroke-miterlimit="10"/>
<path d="M643.409 682.326L661.2 684.4" stroke="white" stroke-miterlimit="10"/>
<path d="M665.55 404.101L84.999 379.204V62.814L665.55 37.9175V404.101Z" fill="#263238"/>
<path d="M651.224 386.86L95.7581 365.212V76.8212L651.224 55.1582V386.86Z" stroke="white" stroke-miterlimit="10"/>
<path d="M276.182 109.518L122.482 113.868C121.567 113.841 120.668 113.63 119.837 113.248C119.006 112.865 118.26 112.32 117.645 111.643C117.029 110.967 116.556 110.173 116.253 109.31C115.951 108.446 115.825 107.531 115.884 106.618C115.884 102.515 118.784 99.0928 122.482 98.9768L276.182 93.9453C277.154 93.9542 278.114 94.1585 279.006 94.546C279.897 94.9336 280.702 95.4965 281.371 96.2013C282.041 96.9061 282.562 97.7384 282.904 98.6486C283.245 99.5589 283.4 100.528 283.359 101.5V101.5C283.432 103.505 282.725 105.461 281.387 106.956C280.048 108.451 278.183 109.37 276.182 109.518V109.518Z" fill="#808080"/>
<path d="M183.874 104.617C183.929 103.683 183.795 102.748 183.478 101.867C183.162 100.987 182.671 100.179 182.034 99.4935C181.397 98.8079 180.628 98.2584 179.773 97.878C178.918 97.4977 177.995 97.2943 177.06 97.2803L122.496 99.0638C118.856 99.1798 115.898 102.602 115.898 106.705C115.84 107.618 115.965 108.533 116.268 109.397C116.57 110.26 117.043 111.054 117.659 111.73C118.275 112.407 119.02 112.952 119.851 113.335C120.682 113.717 121.582 113.928 122.496 113.955L177.06 112.375C178.977 112.212 180.758 111.313 182.028 109.867C183.298 108.421 183.96 106.54 183.874 104.617Z" fill="white"/>
<path d="M276.181 139.78L122.481 142.984C118.842 143.071 115.884 139.809 115.884 135.734C115.79 133.863 116.425 132.027 117.655 130.614C118.885 129.2 120.615 128.317 122.481 128.151L276.181 124.323C277.155 124.332 278.117 124.536 279.009 124.925C279.902 125.313 280.707 125.877 281.377 126.584C282.047 127.29 282.567 128.124 282.908 129.036C283.248 129.948 283.402 130.919 283.359 131.892V131.892C283.416 133.88 282.7 135.812 281.361 137.283C280.023 138.754 278.166 139.649 276.181 139.78V139.78Z" fill="#808080"/>
<path d="M222.314 133.269C222.365 132.319 222.224 131.368 221.899 130.474C221.575 129.579 221.074 128.759 220.426 128.062C219.777 127.365 218.996 126.806 218.127 126.418C217.258 126.029 216.32 125.82 215.369 125.802L122.569 128.122C120.702 128.288 118.972 129.171 117.742 130.585C116.512 131.998 115.877 133.834 115.971 135.705C115.971 139.809 118.871 143.071 122.569 142.955L215.441 141.012C217.364 140.857 219.152 139.964 220.433 138.522C221.714 137.079 222.388 135.197 222.314 133.269V133.269Z" fill="white"/>
<path d="M276.182 170.027L122.482 172.043C121.565 172 120.665 171.776 119.836 171.383C119.006 170.99 118.263 170.436 117.649 169.753C117.035 169.071 116.563 168.273 116.26 167.406C115.957 166.54 115.829 165.622 115.884 164.706V164.706C115.806 162.844 116.448 161.023 117.676 159.622C118.905 158.221 120.625 157.346 122.482 157.18L276.182 154.541C277.158 154.561 278.12 154.776 279.012 155.173C279.904 155.571 280.708 156.142 281.376 156.853C282.045 157.565 282.564 158.403 282.905 159.318C283.245 160.233 283.4 161.207 283.359 162.183V162.183C283.427 164.169 282.713 166.103 281.371 167.569C280.029 169.036 278.166 169.918 276.182 170.027V170.027Z" fill="#808080"/>
<path d="M249.4 162.69C249.443 161.728 249.293 160.768 248.961 159.864C248.628 158.961 248.119 158.133 247.463 157.428C246.807 156.724 246.018 156.157 245.14 155.761C244.263 155.364 243.315 155.147 242.353 155.121L122.496 157.18C120.64 157.346 118.919 158.221 117.691 159.622C116.462 161.023 115.82 162.844 115.899 164.706C115.844 165.622 115.972 166.54 116.275 167.407C116.577 168.273 117.05 169.071 117.663 169.753C118.277 170.436 119.02 170.99 119.85 171.383C120.68 171.776 121.579 172 122.496 172.043L242.353 170.477C244.311 170.353 246.143 169.47 247.459 168.016C248.776 166.561 249.472 164.65 249.4 162.69V162.69Z" fill="white"/>
<path d="M276.181 200.289L122.482 201.101C121.563 201.051 120.664 200.82 119.835 200.422C119.006 200.023 118.264 199.465 117.651 198.78C117.038 198.094 116.566 197.294 116.263 196.426C115.96 195.558 115.831 194.638 115.884 193.72V193.72C115.784 191.857 116.42 190.03 117.653 188.63C118.887 187.231 120.621 186.372 122.482 186.238L276.181 184.788C277.159 184.816 278.121 185.038 279.013 185.44C279.904 185.843 280.707 186.418 281.374 187.132C282.042 187.847 282.561 188.687 282.902 189.604C283.242 190.521 283.398 191.496 283.359 192.473V192.473C283.434 194.459 282.722 196.394 281.378 197.857C280.034 199.321 278.166 200.194 276.181 200.289V200.289Z" fill="white"/>
<path d="M314.795 108.402L293.741 109.011C292.763 109.012 291.794 108.815 290.894 108.431C289.994 108.048 289.181 107.487 288.504 106.781C287.826 106.075 287.299 105.239 286.953 104.324C286.607 103.409 286.45 102.434 286.491 101.456V101.456C286.437 99.4455 287.161 97.4915 288.511 96.0007C289.862 94.5099 291.735 93.5971 293.741 93.4523L314.795 92.7998C315.783 92.7887 316.763 92.9799 317.675 93.3614C318.586 93.7429 319.41 94.3067 320.096 95.0183C320.782 95.7299 321.315 96.5741 321.663 97.4992C322.01 98.4243 322.165 99.4107 322.118 100.398V100.398C322.159 102.417 321.422 104.375 320.059 105.866C318.695 107.356 316.81 108.264 314.795 108.402V108.402Z" fill="white"/>
<path d="M314.795 138.968L293.741 139.403C292.758 139.404 291.784 139.205 290.88 138.818C289.976 138.432 289.16 137.865 288.482 137.153C287.804 136.441 287.278 135.598 286.935 134.676C286.593 133.754 286.442 132.772 286.491 131.79C286.434 129.785 287.159 127.835 288.511 126.353C289.863 124.871 291.738 123.971 293.741 123.844L314.795 123.322C315.784 123.327 316.761 123.531 317.669 123.922C318.577 124.313 319.397 124.882 320.08 125.597C320.764 126.311 321.296 127.156 321.646 128.08C321.996 129.005 322.156 129.99 322.117 130.978V130.978C322.174 133 321.441 134.965 320.074 136.456C318.708 137.947 316.814 138.848 314.795 138.968Z" fill="white"/>
<path d="M314.795 169.52L293.741 169.795C292.758 169.778 291.788 169.566 290.888 169.169C289.989 168.772 289.177 168.2 288.502 167.485C287.827 166.771 287.301 165.928 286.956 165.008C286.61 164.087 286.452 163.107 286.491 162.125V162.125C286.431 160.124 287.156 158.179 288.511 156.705C289.865 155.231 291.742 154.345 293.741 154.237L314.795 153.874C315.785 153.891 316.762 154.105 317.668 154.503C318.575 154.902 319.393 155.477 320.075 156.195C320.756 156.913 321.288 157.76 321.639 158.686C321.99 159.612 322.152 160.598 322.118 161.588V161.588C322.181 163.606 321.449 165.568 320.079 167.052C318.709 168.535 316.812 169.422 314.795 169.52V169.52Z" fill="white"/>
<path d="M314.795 200.1L293.741 200.202C292.756 200.175 291.786 199.954 290.887 199.551C289.988 199.147 289.177 198.569 288.503 197.85C287.829 197.132 287.304 196.286 286.959 195.363C286.613 194.44 286.454 193.458 286.491 192.473V192.473C286.428 190.477 287.153 188.536 288.51 187.071C289.867 185.606 291.746 184.734 293.741 184.643L314.795 184.455C315.787 184.477 316.765 184.696 317.672 185.099C318.578 185.503 319.396 186.082 320.077 186.803C320.758 187.525 321.289 188.375 321.64 189.303C321.99 190.232 322.152 191.22 322.118 192.212C322.18 194.226 321.447 196.183 320.076 197.66C318.706 199.137 316.808 200.013 314.795 200.1Z" fill="white"/>
<path d="M123.7 91.2627L148.437 90.4072" stroke="white" stroke-miterlimit="10"/>
<path d="M123.7 121.742L148.437 121.089" stroke="white" stroke-miterlimit="10"/>
<path d="M123.7 150.67L148.437 150.206" stroke="white" stroke-miterlimit="10"/>
<path d="M123.7 181.149L148.437 180.888" stroke="white" stroke-miterlimit="10"/>
<path d="M581.305 92.0897L602.04 91.4517" stroke="white" stroke-miterlimit="10"/>
<path d="M569.256 109.953L602.04 109.083" stroke="white" stroke-miterlimit="10"/>
<path d="M581.305 127.165L602.04 126.701" stroke="white" stroke-miterlimit="10"/>
<path d="M589.874 144.551L602.04 144.333" stroke="white" stroke-miterlimit="10"/>
<path d="M581.305 162.255L602.04 161.965" stroke="white" stroke-miterlimit="10"/>
<path d="M575.766 179.844L602.04 179.583" stroke="white" stroke-miterlimit="10"/>
<path d="M581.305 197.33L602.04 197.214" stroke="white" stroke-miterlimit="10"/>
<path d="M571.257 214.89L602.04 214.847" stroke="white" stroke-miterlimit="10"/>
<path d="M581.305 232.406L602.04 232.464" stroke="white" stroke-miterlimit="10"/>
<path d="M607.55 91.3501L613.843 91.1616" stroke="white" stroke-miterlimit="10"/>
<path d="M607.55 108.939L613.843 108.765" stroke="white" stroke-miterlimit="10"/>
<path d="M607.55 126.585L613.843 126.44" stroke="white" stroke-miterlimit="10"/>
<path d="M607.651 144.231L613.771 144.115" stroke="white" stroke-miterlimit="10"/>
<path d="M607.55 161.878L613.843 161.791" stroke="white" stroke-miterlimit="10"/>
<path d="M607.55 179.539H613.713" stroke="white" stroke-miterlimit="10"/>
<path d="M607.55 197.2H613.843" stroke="white" stroke-miterlimit="10"/>
<path d="M607.434 214.832H613.771" stroke="white" stroke-miterlimit="10"/>
<path d="M607.55 232.479H613.843" stroke="white" stroke-miterlimit="10"/>
<path d="M619.918 90.9004L630.692 90.5669" stroke="white" stroke-miterlimit="10"/>
<path d="M619.918 108.605L630.692 108.315" stroke="white" stroke-miterlimit="10"/>
<path d="M619.918 126.309L630.692 126.063" stroke="white" stroke-miterlimit="10"/>
<path d="M620.194 144L630.692 143.811" stroke="white" stroke-miterlimit="10"/>
<path d="M619.918 161.704L630.692 161.559" stroke="white" stroke-miterlimit="10"/>
<path d="M620.151 179.409L630.692 179.307" stroke="white" stroke-miterlimit="10"/>
<path d="M619.918 197.113H630.692" stroke="white" stroke-miterlimit="10"/>
<path d="M619.832 214.817H630.75" stroke="white" stroke-miterlimit="10"/>
<path d="M619.918 232.522H630.692" stroke="white" stroke-miterlimit="10"/>
<path d="M343.781 218.341L554.64 218.196" stroke="#999999" stroke-miterlimit="10"/>
<path d="M343.781 204.929L554.64 204.059" stroke="#999999" stroke-miterlimit="10"/>
<path d="M343.781 191.501L554.64 189.921" stroke="#999999" stroke-miterlimit="10"/>
<path d="M555.35 246.08V182.28C555.35 182.28 550.405 176.001 530.004 177.161C509.82 178.321 504.977 196.156 483.604 206.538C462.231 216.92 452.4 200.173 435 200.26C417.6 200.347 409.118 219.603 396.633 226.896C384.149 234.19 373.172 225.954 358.339 227.737C354.173 228.21 350.243 229.914 347.051 232.631C343.859 235.348 341.549 238.955 340.417 242.991L340.214 244.789L555.35 246.08Z" fill="white"/>
<path d="M555.35 246.079V211.047C548.376 210.67 533.904 211.83 518.534 224.634C503.164 237.437 475.745 230.68 467.683 227.737C454.851 223.039 440.133 222.807 425.503 232.087C410.872 241.367 398.982 240.468 385.425 240.395C375.84 240.395 364.719 243.295 359.107 244.905L555.35 246.079Z" fill="#808080"/>
<path d="M394.067 345.477L356.555 344.302C354.809 344.191 353.173 343.409 351.99 342.12C350.807 340.831 350.167 339.135 350.204 337.386C350.175 336.535 350.318 335.687 350.624 334.893C350.93 334.099 351.394 333.374 351.987 332.764C352.58 332.153 353.29 331.668 354.075 331.339C354.86 331.009 355.704 330.842 356.555 330.846L394.067 331.876C395.842 331.977 397.51 332.76 398.721 334.063C399.932 335.366 400.592 337.086 400.563 338.865V338.865C400.586 339.73 400.435 340.59 400.118 341.396C399.801 342.201 399.326 342.934 398.719 343.551C398.113 344.168 397.389 344.657 396.589 344.988C395.79 345.319 394.932 345.485 394.067 345.477V345.477Z" fill="#808080"/>
<path d="M469.8 347.826L430.853 346.622C429.058 346.518 427.372 345.726 426.146 344.411C424.92 343.096 424.248 341.359 424.27 339.561V339.561C424.248 338.687 424.403 337.818 424.726 337.006C425.048 336.193 425.531 335.454 426.146 334.833C426.76 334.211 427.494 333.72 428.303 333.389C429.112 333.058 429.979 332.893 430.853 332.905L469.8 333.978C471.626 334.065 473.348 334.854 474.604 336.181C475.861 337.508 476.556 339.27 476.543 341.098V341.098C476.56 341.988 476.398 342.872 476.065 343.697C475.733 344.522 475.236 345.272 474.606 345.9C473.977 346.529 473.226 347.023 472.4 347.354C471.574 347.685 470.69 347.846 469.8 347.826Z" fill="#808080"/>
<path d="M546.795 350.233L506.369 348.972C504.513 348.885 502.762 348.081 501.488 346.728C500.214 345.375 499.515 343.58 499.54 341.722C499.524 340.822 499.69 339.929 500.028 339.096C500.366 338.262 500.869 337.506 501.507 336.872C502.145 336.238 502.905 335.74 503.74 335.407C504.576 335.074 505.47 334.914 506.369 334.936L546.795 336.052C548.672 336.12 550.45 336.913 551.754 338.266C553.057 339.618 553.785 341.424 553.784 343.302C553.804 344.223 553.637 345.138 553.292 345.992C552.947 346.845 552.432 347.62 551.778 348.268C551.124 348.917 550.345 349.425 549.489 349.763C548.632 350.101 547.715 350.261 546.795 350.233V350.233Z" fill="#808080"/>
<path d="M115.638 309.082L323.596 313.998" stroke="#999999" stroke-miterlimit="10"/>
<path d="M115.638 298.047L323.596 302.354" stroke="#999999" stroke-miterlimit="10"/>
<path d="M115.638 287.013L323.596 290.696" stroke="#999999" stroke-miterlimit="10"/>
<path d="M115.638 275.964L323.596 279.038" stroke="#999999" stroke-miterlimit="10"/>
<path d="M115.638 264.93L323.596 267.395" stroke="#999999" stroke-miterlimit="10"/>
<path d="M115.638 253.895L323.596 255.736" stroke="#999999" stroke-miterlimit="10"/>
<path d="M115.638 242.86L323.596 244.078" stroke="#999999" stroke-miterlimit="10"/>
<path d="M115.638 231.826L323.596 232.435" stroke="#999999" stroke-miterlimit="10"/>
<path d="M140.723 321.61L120.8 321.073V277.312L140.723 277.617V321.61Z" fill="#808080"/>
<path d="M168.983 322.364L148.755 321.827V265.379L168.983 265.625V322.364Z" fill="white"/>
<path d="M197.679 323.132L177.147 322.581V256.026L197.679 256.229V323.132Z" fill="#808080"/>
<path d="M226.809 323.915L205.958 323.364V228.418L226.809 228.462V323.915Z" fill="white"/>
<path d="M256.389 324.713L235.219 324.147V256.563L256.389 256.766V324.713Z" fill="#808080"/>
<path d="M286.433 325.525L264.93 324.945V278.081L286.433 278.4V325.525Z" fill="white"/>
<path d="M316.955 326.337L295.104 325.757V297.076L316.955 297.497V326.337Z" fill="#808080"/>
<path d="M121.742 332.123L137.953 332.601" stroke="white" stroke-linecap="round" stroke-linejoin="round"/>
<path d="M149.901 332.963L166.358 333.456" stroke="white" stroke-linecap="round" stroke-linejoin="round"/>
<path d="M178.481 333.819L195.199 334.312" stroke="white" stroke-linecap="round" stroke-linejoin="round"/>
<path d="M207.51 334.674L224.475 335.182" stroke="white" stroke-linecap="round" stroke-linejoin="round"/>
<path d="M236.988 335.559L254.214 336.067" stroke="white" stroke-linecap="round" stroke-linejoin="round"/>
<path d="M266.916 336.458L284.417 336.98" stroke="white" stroke-linecap="round" stroke-linejoin="round"/>
<path d="M297.323 337.357L315.099 337.893" stroke="white" stroke-linecap="round" stroke-linejoin="round"/>
<path d="M571.837 262.522V252.111L600.126 252.329V262.798L571.837 262.522Z" fill="white"/>
<path d="M571.837 277.081V266.684L608.116 267.076V277.574L571.837 277.081Z" fill="#808080"/>
<path d="M571.837 291.639V281.242L614.365 281.851V292.364L571.837 291.639Z" fill="white"/>
<path d="M571.837 306.211V295.8L632.302 296.887V307.443L571.837 306.211Z" fill="#808080"/>
<path d="M571.837 320.769V310.373L614.365 311.272V321.784L571.837 320.769Z" fill="white"/>
<path d="M571.837 335.327V324.931L601.011 325.656V336.125L571.837 335.327Z" fill="#808080"/>
<path d="M571.837 349.899V339.488L589.498 339.996V350.436L571.837 349.899Z" fill="white"/>
<path d="M404.898 288.768C404.898 306.458 391.239 320.45 374.521 320.03C357.802 319.609 344.607 305.167 344.607 287.753C344.607 270.338 357.947 256.331 374.521 256.476C391.094 256.621 404.898 271.15 404.898 288.768Z" fill="#808080"/>
<path d="M375.956 256.563C375.478 256.563 375.014 256.476 374.506 256.476C357.933 256.331 344.593 270.338 344.593 287.753C344.593 305.167 357.933 319.653 374.506 320.03C374.999 320.03 375.463 320.03 375.956 320.03V256.563Z" fill="white"/>
<path d="M395.444 288.55C395.444 300.73 386.048 310.401 374.521 310.14C362.993 309.879 353.8 299.961 353.8 287.912C353.8 275.862 363.051 266.162 374.506 266.321C385.961 266.481 395.444 276.428 395.444 288.55Z" fill="#263238"/>
<path d="M479.95 290C479.95 308.009 465.783 322.263 448.441 321.828C431.099 321.393 417.397 306.675 417.397 288.942C417.397 271.208 431.23 256.94 448.441 257.042C465.653 257.143 479.95 272.02 479.95 290Z" fill="white"/>
<path d="M470.076 289.87C470.136 292.753 469.616 295.62 468.548 298.299C467.479 300.978 465.883 303.415 463.854 305.465C461.825 307.515 459.405 309.137 456.738 310.234C454.07 311.331 451.21 311.881 448.326 311.852C436.421 311.591 426.837 301.426 426.837 289.145C426.777 286.283 427.288 283.438 428.341 280.776C429.393 278.115 430.966 275.69 432.967 273.643C434.968 271.596 437.357 269.969 439.994 268.856C442.631 267.744 445.463 267.168 448.326 267.163C460.317 267.293 470.076 277.458 470.076 289.87Z" fill="#263238"/>
<path d="M557.713 291.348C557.765 295.647 556.951 299.912 555.321 303.89C553.691 307.867 551.278 311.477 548.225 314.503C545.172 317.529 541.541 319.91 537.549 321.505C533.557 323.099 529.285 323.875 524.987 323.785C516.317 323.469 508.109 319.795 502.097 313.54C496.085 307.284 492.74 298.937 492.768 290.261C492.722 286.007 493.522 281.786 495.122 277.844C496.722 273.902 499.09 270.318 502.088 267.299C505.087 264.281 508.655 261.889 512.586 260.262C516.517 258.636 520.733 257.807 524.987 257.824C533.754 257.988 542.103 261.598 548.228 267.872C554.353 274.146 557.761 282.58 557.713 291.348V291.348Z" fill="#808080"/>
<path d="M526.539 257.911C526.017 257.911 525.509 257.824 524.987 257.824C520.733 257.807 516.517 258.636 512.586 260.262C508.655 261.889 505.087 264.281 502.088 267.299C499.09 270.318 496.722 273.902 495.122 277.844C493.522 281.786 492.722 286.007 492.768 290.261C492.74 298.937 496.085 307.284 502.097 313.54C508.109 319.795 516.317 323.469 524.987 323.785C525.509 323.785 526.017 323.785 526.539 323.785V257.911Z" fill="white"/>
<path d="M547.535 291.174C547.57 294.138 547.01 297.079 545.888 299.823C544.765 302.566 543.103 305.057 541 307.146C538.898 309.235 536.397 310.881 533.646 311.986C530.895 313.09 527.951 313.631 524.987 313.577C518.981 313.373 513.292 310.835 509.128 306.503C504.963 302.171 502.652 296.386 502.686 290.377C502.655 287.435 503.21 284.517 504.319 281.793C505.428 279.069 507.068 276.592 509.144 274.508C511.22 272.424 513.69 270.774 516.41 269.655C519.13 268.536 522.046 267.969 524.987 267.989C531.037 268.118 536.793 270.622 541.012 274.961C545.231 279.299 547.574 285.123 547.535 291.174V291.174Z" fill="#263238"/>
<path d="M368.083 289.739L381.858 289.985" stroke="white" stroke-miterlimit="10"/>
<path d="M441.975 291.015L456.272 291.262" stroke="white" stroke-miterlimit="10"/>
<path d="M517.273 292.32L532.107 292.581" stroke="white" stroke-miterlimit="10"/>
<path d="M442.613 120.901L442.714 119.799L442.395 120.118L442.613 120.901Z" fill="#808080"/>
<path d="M399.838 137.155L400.577 137.271L402.274 136.749L399.838 135.966L400.171 136.764L399.185 136.996L399.838 137.155Z" fill="#808080"/>
<path d="M419.05 150.641L415.309 149.191L414.642 149.582L414.744 149.017L413.54 148.205L412.163 148.785L412.612 148.103L411.583 147.813L411.249 148.277L411.887 147.045L411.104 145.319L410.22 144.551L408.248 144.29L406.798 142.84H406.058L406.189 142.361L405.435 142.057V141.723L405.014 141.593L404.028 142.013L402.404 141.593L401.578 140.824L401.433 141.201L400.737 141.68L400.911 142.521L400.374 142.332L400.592 141.564L400.519 141.158L400.65 141.042L400.78 140.679L399.33 141.477H399.084L397.924 143.231H397.822L397.503 142.767L396.793 142.405L396.068 142.724H395.256L394.429 141.636L394.734 139.215L394.168 138.765H392.138L391.935 138.635L392.24 137.359H392.341L392.936 135.416H391.703L390.572 137.17L389.006 137.446L388.426 137.141L387.6 135.807V132.646L387.397 132.559L387.6 132.646L387.455 131.907L387.585 131.341L389.311 129.993L390.993 130.37L391.225 130.167L391.674 130.515L391.457 129.906L392.254 129.529L392.457 129.688L393.124 129.572L393.603 129.949H393.951L394.429 129.761L395.705 132.661H396.097L396.314 131.965L395.604 129.065L397.909 126.469V126.092L398.04 125.875H398.388L398.518 125.527L398.17 124.932V124.657L397.837 124.164L398.04 123.961V123.192H398.214L398.301 124.454L398.533 124.28L398.634 123.265H398.997L399.258 122.525L400.287 122.105H399.519L400.331 121.786L400.592 121.539H401.012L400.882 121.09L401.273 120.147L401.94 119.495H402.578L404.028 118.378V118.625L404.492 118.813L403.463 119.35V120.002L404.13 119.843L404.608 119.35L405.783 118.958L406 118.9L406.682 118.596L406.493 118.364V117.958L405.667 118.799L404.768 118.639L404.217 118.146V117.537L403.985 117.349V117.117L404.492 116.363L402.288 116.827L401.172 117.943L402.448 116.261L402.984 116.073L403.361 115.551L406.551 115.275L408.871 113.825V113.579L408.726 113.419L408.9 113.1L408.625 112.651L408.088 112.752V112.274L406.798 112.781L406.682 112.549L408.001 111.926L405.522 110.36V110.2L405.928 109.939L404.333 107.039L403.869 107.648L403.695 108.33L403.521 108.547H403.216L402.709 108.91L401.868 108.17L401.65 107.155L401.824 106.648L400.664 106.285L399.606 105.328L399.098 105.531L397.547 105.328L397.329 105.763L397.663 106.155L397.387 106.72L397.735 107.576L397.228 108.823L397.982 109.504L398.098 110.78L397.3 111.65L396.59 111.969L396.996 113.811L396.894 114.304L396.967 114.594H396.735L396.459 114.971L396.039 114.797L395.14 113.492V112.143L394.85 111.781L390.645 110.128L389.891 110.403V110.113L389.296 108.895L388.745 108.75L389.064 106.677L390.79 104.835L389.253 104.154L391.007 104.444L391.138 103.936L391.877 104.052L392.602 103.182L391.326 102.588V102.269L392.341 102.805L393.095 102.153L392.805 101.819L393.197 101.616L393.53 101.877H394.067L393.791 101.471L393.878 101.312L394.4 101.5H394.835L395.589 100.862L395.169 99.818V99.5715L395.676 99.354L395.372 98.7595L393.617 98.2375V98.7885L393.777 99.0786L393.69 99.3396L393.356 99.6006L393.11 100.195L392.892 99.8325L392.82 100.297L393.008 100.645L392.66 100.949L392.037 100.094L392.254 99.8325V99.47L391.921 99.0786L391.442 98.9625L391.022 99.8616L390.862 99.1655L391.051 98.687L390.543 98.4696L390.166 98.5855V98.0925L390.456 97.962L389.702 97.295V96.7875L389.05 96.28L388.934 96.0336L389.296 95.7146L389.412 95.1345H390.195L390.935 93.9601L389.572 93.5396L388.513 93.7571L388.658 94.105H388.325L388.6 96.0915L388.296 96.4396L388.455 96.773H388.035V98.339L389.05 98.7305L388.876 99.4991L389.122 99.2815L389.354 99.6006L388.513 100.21V100.775L388.238 100.993L387.977 100.529V100.079L387.397 99.905L387.774 99.818L388.035 99.586L388.615 99.5135L388.339 99.0205H387.933L388.354 98.919L387.484 98.6L386.396 99.18L387.223 99.789L386.788 100.108V100.485L384.004 100.34L383.554 100.094L383.293 99.644H382.467L381.727 100.05L381.959 100.282L383.09 99.847L382.264 100.369V101.616L381.945 101.471V100.993L378.45 100.761L379.016 100.297L378.827 99.8616L375.565 99.006L373.854 99.354V98.9771L373.694 98.5275L373.013 99.3685L372.259 98.2375L371.954 98.3536L371.403 99.0786L369.33 100.152L369.446 99.8325L371.215 98.7015H370.78L369.069 99.528L368.692 99.325L368.01 99.9196L368.213 100.253L359.774 98.6L359.615 98.3101H358.759L358.513 98.078L357.875 98.2521L358.063 97.9911L357.672 97.7881L355.903 98.5711L356.019 98.8756L354.917 99.0205L354.337 99.6006L354.134 100.224L352.872 100.543L352.742 100.92L354.105 102.283H354.946L355.105 102.776L355.642 102.892L353.989 103.24V102.95H353.365L353.09 103.298H352.655L351.988 103.762L352.713 104.081L352.611 104.357L352.988 104.777H354.438L355.323 104.386L355.178 104.792V105.56L354.569 105.633L354.308 106.111L353.8 105.995L353.597 106.59L353.104 107.025L352.858 107.547L353.307 107.88V108.431L353.916 109.098L354.511 108.968L354.757 108.721L354.917 109.954H356.454L356.657 109.649H357.193L357.034 110.853L355.584 112.303L354.815 112.419L354.453 113.057L359.194 109.591L358.803 109.374L360.557 107.445L360.862 107.576V107.793L360.354 107.924L360.151 108.46V108.881L359.977 109.142L360.18 109.33L361.166 108.678H361.877V108.373L361.659 108.04L361.819 107.75L362.848 107.953L362.631 108.156V108.359L363.327 108.199L363.428 108.301L365.081 108.431L365.531 108.765L366.14 108.518L366.038 108.881L367.488 109.925L367.778 109.635L368.184 109.867V109.374H368.373V110.128L367.996 110.041L367.662 110.157L368.46 111.433V110.418L368.532 110.824L368.822 110.621V110.2L369.112 110.592L368.953 110.998L368.677 111.157V111.766L368.88 111.549L369.199 111.462L369.634 111.839L369.431 111.563V111.244L369.808 111.81L369.562 112.114L369.127 111.882L369.199 112.897L369.373 112.694L369.649 112.81L369.765 112.477L370.011 112.578L370.243 112.433V112.839H370.461L370.678 113.129L370.533 113.376L370.62 113.811H371.055L371.171 114.144L371.795 114.623L371.911 115.522L373.23 116.116L373.419 116.464L374.1 116.682L374.535 117.291L374.622 117.885L374.463 118.48L374.231 117.624V117.378L372.781 116.116L371.592 115.899L373.187 117.349L373.897 119.016L373.97 124.526L375.652 127.325L376.696 127.702L378.842 131.631H378.436L379.61 132.53L379.755 133.255L380.872 134.575L381.118 134.386L381.017 133.922L380.582 133.719L379.132 130.906V130.602L378.74 130.413L378.291 129.108H378.479L379.248 129.398L379.436 130.848L383.177 135.546V135.981L383.018 136.184L383.424 136.909L387.092 138.823H389.035L389.572 139.302L390.137 139.838L391.834 140.346L392.008 140.259H392.153L392.283 140.694L393.066 141.593V141.825L393.197 142.332L393.487 142.26L395.517 143.71L395.908 143.579L395.763 143.26L396.024 142.97L396.59 142.753L397.199 143.927L397.286 146.117L396.503 147.146V147.219L396.155 147.436L395.85 149.35L396.155 149.655H396.401L396.169 150.017L395.749 150.525L395.952 151.322L395.792 151.482L398.489 156.644L401.389 158.819L399.287 174.769L399.519 175.16L399.751 174.102L399.939 173.884L400.07 174.102L399.881 176.581L399.62 176.755V177.132L399.301 176.987L399.519 176.596L399.258 176.175L399.417 176.639L398.852 177.031V177.306L398.533 177.669H399.185V177.959L399.026 178.321H399.504V178.553H398.866L398.518 178.872L398.707 179.133L398.968 178.945H399.171L398.649 179.554L398.881 179.974L399.258 179.467L399.113 180.322L398.808 180.699V181.25L399.33 181.163L399.432 181.366L399.2 181.642H399.504H399.678L399.997 181.772L399.548 181.99L399.403 182.338L399.78 182.193H400.563L399.635 182.584V182.7L400.679 182.352L400.026 182.889H399.49V183.28L400.258 183.541L400.171 183.338L401.215 182.193L401.07 182.816H401.534L401.244 183.077V183.483L401.027 183.005L400.925 183.367L400.679 183.266L400.287 183.73L400.664 183.817L400.911 184.339L401.099 183.875L401.462 184.411L401.636 184.208L402.172 184.643V184.252L403.753 183.962L402.158 182.758V182.512L401.969 182.193L401.52 181.961V181.874H401.998L401.679 180.888L401.781 180.351L403.318 178.466L403.419 177.886L402.912 177.741L402.549 176.857L403.39 176.291L404.014 174.551L404.304 174.74L404.507 174.29L404.144 174.392L403.869 174.247L403.767 173.261L404.579 173.493L405.174 173.145V172.173L405.362 171.941L406.667 171.84L407.639 171.274L408.103 170.506L407.16 168.867H407.334L408.204 169.157L409.364 169.027L410.945 166.127V166.866L412.119 165.083L412.424 162.922L414.425 161.472L415.744 161.298L417.194 158.181L417.325 155.281L417.426 155.107L417.745 155.208L419.355 152.685L419.253 150.989L418.804 150.655L419.05 150.641Z" fill="#808080"/>
<path d="M399.272 135.909L395.865 134.183L394.067 134.952L394.937 134.473L397.373 135.532L397.619 135.996L399.272 135.909Z" fill="#808080"/>
<path d="M397.17 137.083L398.214 137.272L397.17 137.083Z" fill="#808080"/>
<path d="M402.969 137.025L403.81 136.996L402.969 137.025Z" fill="#808080"/>
<path d="M390.557 148.06L390.876 148.654L390.557 148.06Z" fill="#808080"/>
<path d="M426.286 96.9033L424.241 96.8598L424.473 95.9173L426.344 96.5698L426.518 95.7868L425.184 94.4673L425.938 94.5543L426.431 93.9308L425.198 93.9453L424.966 93.5683L425.169 93.0753L426.3 93.4233L427.17 93.1623L426.489 92.4518L427.634 92.2923L427.765 91.8863L426.837 91.2483L427.736 91.0453L427.489 89.9723L426.576 89.7548L426.199 89.3053L428.301 89.1313L427.982 88.5223L427.127 88.3338L427.837 88.1453L426.387 87.9568L426.706 86.8548L428.475 85.4048L428.127 84.9553L427.272 85.2888L427.968 84.7813L429.272 84.5203L428.316 84.3028L431.52 82.7948L429.751 82.2873L428.707 82.8818L427.649 82.9833L427.199 82.8093L425.314 84.2738L426.17 83.0268L425.851 82.1858L423.545 83.3313L424.618 82.5338L420.747 82.8963L426.576 81.4753L418.412 80.4458L417.542 80.9823L413.671 81.1563L414.178 81.6783L413.265 82.0118L414.57 82.9108L411.394 82.0408L412.018 82.8383L411.307 82.8963L410.365 82.3453L410.321 83.0848L409.901 83.5053L409.625 82.3163L405.971 83.3893L406.116 84.2738L405.145 84.1288L402.839 85.6513L404.086 85.8253L403.666 86.9128L400.128 88.2178L400.432 88.6528L403.448 89.2908L400.838 89.7548L401.752 90.0013L401.766 90.4653L402.375 90.8278L405 90.5088L407.465 91.5383L409.263 94.4528L409.002 95.1923L409.248 95.9753L410.017 95.5693L410.205 96.1493L411.177 96.6568L410.974 96.9033L409.611 96.8308L410.988 97.5123L411.438 98.1068L411.336 98.9188L410.684 98.9768L409.857 100.282L410.35 100.775L409.959 101.311L410.669 102.138L410.756 103.138L411.96 105.212L415.106 107.126L415.483 106.662L415.701 104.806L416.556 103.646L416.571 103.225L416.774 102.95L416.672 102.515L416.745 102.283L417.948 101.239L418.195 101.224L418.311 101.529L419.268 101.268L421.037 99.3683L426.097 97.2078L426.286 96.9033Z" fill="#808080"/>
<path d="M410.814 98.0198L410.408 97.5993L409.408 97.4253L409.335 97.9328L409.901 98.2953L410.814 98.0198Z" fill="#808080"/>
<path d="M390.195 92.5247L391.616 92.9742L391.978 92.7857L396.14 92.8292L396.59 91.8867L391.457 91.6112L391.616 91.0602L389.18 90.3062L387.904 90.5527L390.181 91.6257L390.195 92.5247Z" fill="#808080"/>
<path d="M396.488 106.154L396.561 105.502L396.488 106.154Z" fill="#808080"/>
<path d="M385.047 98.4838L385.758 98.4258L384.062 97.2368L383.714 94.2788L382.728 94.5688L383.366 95.1778L382.67 94.8878L382.133 94.9023L382.467 96.3088L382.148 96.6278L381.771 95.6418L380.828 95.2503L381.22 95.7288L380.625 95.8013L379.668 95.2358L379.335 95.7868L378.958 95.6273L379.045 94.9458L376.855 95.9753L376.71 96.3813L377.145 97.1498L378.334 96.9323L377.015 97.5703L380.205 98.1068L377.435 98.6868L380.393 99.9918L382.641 99.1653L385.265 99.3973L384.932 98.8898L384.54 98.8753L385.047 98.4838Z" fill="#808080"/>
<path d="M394.516 105.647L395.372 104.965L394.516 105.647Z" fill="#808080"/>
<path d="M408.857 114.521L408.61 114.333L407.117 117.305L409.103 117.233L408.973 117.653L409.408 117.436L410.365 117.653L410.104 116.827L409.901 116.696L409.93 116.116L409.074 115.913L408.842 115.58L408.451 115.609L408.494 115.188L408.857 114.521Z" fill="#808080"/>
<path d="M404.391 115.739L405.797 116.246L404.391 115.739Z" fill="#808080"/>
<path d="M396.14 104.168L393.82 102.37L393.255 102.776L392.689 104.371L393.327 104.328L393.588 104.792L394.444 104.226L396.14 104.168Z" fill="#808080"/>
<path d="M384.366 92.6695L383.902 92.394L384.366 92.6695Z" fill="#808080"/>
<path d="M398.75 100.572L398.823 99.7889L398.17 99.6294L397.706 100.543L398.75 100.572Z" fill="#808080"/>
<path d="M386.541 96.7728L387.44 96.4683L388.107 95.0183L387.803 94.9603L387.73 95.1923L387.107 94.9313L387.759 94.2933L387.397 93.7568L385.584 94.5688L386.135 95.0618L385.135 94.9893L386.541 96.7728Z" fill="#808080"/>
<path d="M374.578 97.6142L378.378 94.7431L377.754 94.1197L375.405 93.5977L373.824 93.9312L374.057 94.4677L373.245 96.2367L374.578 97.6142Z" fill="#808080"/>
<path d="M391.341 89.436L390.848 89.9L391.341 89.436Z" fill="#808080"/>
<path d="M376.551 92.3942L377.333 91.7852L376.551 92.3942Z" fill="#808080"/>
<path d="M369.562 113.462L370.33 114.709L370.084 113.825L369.562 113.462Z" fill="#808080"/>
<path d="M389.659 89.291L388.18 89.6535L389.659 89.291Z" fill="#808080"/>
<path d="M400.78 96.338L400.011 96.3815L397.706 95.004L397.141 95.5115L396.836 95.3955L395.995 95.729L396.024 94.743L395.661 94.0615L394.676 94.0905L393.588 94.6125L393.747 95.468L393.486 96.019L394.023 96.4395L393.167 96.077L393.052 95.3375L393.327 94.4965L393.834 93.96L391.834 94.598L391.37 96.628L392.442 96.831L392.327 97.092L391.572 97.1935L395.212 98.194L395.734 97.9185L396.879 98.0635L396.807 97.701L396.923 97.411L398.576 98.687L398.068 99.1945L398.866 98.9045L400.098 100.006V101.021L400.94 100.92L401.722 101.34L400.983 101.775L399.692 101.268L399.562 102.254L397.691 102.747L397.402 103.486L399.779 103.312L400.374 103.892L400.664 104.632L403.462 105.69L402.128 104.182L404.274 104.371L402.65 102.065L402.796 101.413L403.521 101.674L404.26 102.486L405.318 101.949L405.985 101.181L402.477 98.8755L403.172 98.6725L402.592 98.3535L402.882 98.078L402.607 97.5995L402.244 97.817L402.331 97.353L401.186 96.8165L400.534 96.9905L400.345 96.8165L400.78 96.338Z" fill="#808080"/>
<path d="M395.937 93.9312L396.242 94.6417L397.01 94.9027L398.228 94.6272L396.938 93.9457L395.937 93.9312Z" fill="#808080"/>
<path d="M381.191 89.407L380.886 89.1895L379.61 89.697L380.277 90.19L381.191 89.407Z" fill="#808080"/>
<path d="M383.83 88.0294L384.497 88.3774L383.699 88.5514L386.628 89.0734L386.425 88.4354L385.28 87.6524L383.496 87.4204L383.83 88.0294Z" fill="#808080"/>
<path d="M379.335 89.6098L378.668 89.4648L379.335 89.6098Z" fill="#808080"/>
<path d="M383.989 90.1899L383.221 89.5229L383.989 90.1899Z" fill="#808080"/>
<path d="M378.175 91.4952L378.247 91.8867L377.812 92.3797L378.334 92.3652L377.435 92.7277L378.784 92.8147L379.175 92.6262L380.147 92.6697L379.407 93.1627L379.378 93.6992L383.018 92.8147L383.206 91.6112L382.641 91.8722L381.713 90.7412L381.176 91.3937L381.22 91.7852L381.597 92.2057L378.711 91.1182L378.175 91.4952Z" fill="#808080"/>
<path d="M374.883 92.0603L375.637 91.6833L375.985 92.1328L377.044 90.8568L377.189 91.3788L378.059 90.9873V90.5523L378.378 90.2333L377.972 89.9868L377.667 90.2188L377 90.1753L374.695 91.7413L374.883 92.0603Z" fill="#808080"/>
<path d="M380.089 88.9575L381.553 88.6965L380.451 88.4355L379.494 88.9285L380.089 88.9575Z" fill="#808080"/>
<path d="M388.107 86.6518L388.6 87.2608H390.079L389.18 87.7828L391.094 88.7253L391.819 88.6673L392.849 87.4928L393.704 87.1303L392.718 86.5213L392.486 85.9848L389.18 84.5928L389.238 84.8538L388.47 85.4048L388.557 86.0428L388.107 86.6518Z" fill="#808080"/>
<path d="M387.846 89.2185L388.745 89.001L388.789 88.566L387.194 88.0005L387.846 89.2185Z" fill="#808080"/>
<path d="M386.904 86.7244L386.222 86.4634L386.904 86.7244Z" fill="#808080"/>
<path d="M389.166 92.0894L387.89 92.7129L389.412 93.0754L389.166 92.0894Z" fill="#808080"/>
<path d="M385.961 90.5669L386.121 91.2339L385.526 91.0744L385.352 91.4949L385.047 91.5384L384.207 90.6829L384.148 91.4079L384.946 92.0314L386.164 91.9589L386.048 92.6839L387.107 92.7129L387.527 92.2199L387.484 91.6399L386.904 90.7699L385.961 90.5669Z" fill="#808080"/>
<path d="M390.833 83.9987L391.123 84.0712L391.326 84.2887L391.167 84.6947L391.631 85.0282L392.921 85.0427L393.066 85.3182L396.677 84.6512V85.1442L395.009 85.6227L395.647 86.3767L393.182 85.7532L393.211 86.6812L395.14 88.0152L393.777 87.7542L392.472 88.4647H393.675L393.574 88.8272L394.154 89.5812L393.487 89.5232L392.602 89.0302L392.515 89.9727L391.486 90.5962L397.213 90.5382L397.445 90.0162L395.778 89.8422L395.792 89.4942L397.126 89.4072L397.213 88.8272L398.17 88.7257L399.185 87.4932L397.822 87.2032L398.968 86.8262L399.606 86.2607L400.592 86.3042L404.333 83.8682L402.81 83.8247L405.565 82.8967L405.71 82.3167L404.333 81.8237L403.173 82.0412L403.376 81.6787L393.545 82.8242L392.718 83.4622L391.935 83.3607L391.529 83.7377L390.442 83.8827L390.833 83.9987Z" fill="#808080"/>
<path d="M353.51 113.593L354.177 113.187L353.51 113.593Z" fill="#808080"/>
<path d="M359.383 110.2L358.933 110.794L358.571 110.968L358.788 111.403H359.049L359.702 110.838L359.513 110.504L359.876 110.301L359.774 110.026L359.383 110.2Z" fill="#808080"/>
<path d="M352.742 108.707L352.292 108.895L352.988 109.113L353.09 108.721L352.742 108.707Z" fill="#808080"/>
<path d="M439.539 122.221L439.089 122.409L439.539 122.221Z" fill="#808080"/>
<path d="M451.254 124.903L450.109 124.801L449.79 124.961L450.559 125.164L451.254 124.903Z" fill="#808080"/>
<path d="M455.17 125.034L455.46 124.657L455.445 124.541L454.706 124.816L454.459 125.237L455.17 125.034Z" fill="#808080"/>
<path d="M429.896 102.718L430.708 101.877L430.056 100.76L429.708 100.804L429.215 100.543L429.157 100.905L428.345 101.007L428.084 100.92L427.736 101.195L427.533 101.079L427.286 101.268L427.228 101.543L426.88 101.732L426.75 101.253L425.967 100.688L426.039 101.021L425.851 101.007L425.517 101.166L425.256 101.558L426.373 101.674L426.271 101.964L425.416 102.326H426.17L426.503 102.732L426.068 103.211L426.721 103.167L427.663 103.559L429.896 102.718Z" fill="#808080"/>
<path d="M432.927 113.637L434.449 113.028V111.563L434.841 111.273L434.551 110.621L433.318 110.882L433.565 111.157L433.144 111.404L432.593 111.433L432.898 112.288L432.753 112.781L432.405 113.187L432.927 113.637Z" fill="#808080"/>
<path d="M434.478 107.88L434.145 108.416L434.478 107.88Z" fill="#808080"/>
<path d="M434.362 108.677L434.725 109.011L434.536 109.446L434.812 109.765L434.391 110.142L434.754 109.982L434.971 110.33L435.261 109.866L435.305 110.272L435.116 110.867L435.87 110.765L436.218 111.519L436.175 112.056L435.653 112.085L435.493 112.186L435.334 112.563L435.638 112.781L435.145 113.187L435.348 113.433L436.189 113.578L436.233 113.723L435.667 113.825L435 114.767L435.392 114.506L435.769 114.593L436.001 114.318L436.784 114.115L437.19 114.216L438.495 113.709L438.277 113.593L438.321 113.245L438.741 112.665L437.944 112.346V112.027L436.697 110.011L436.218 109.939L436.813 108.503L435.841 108.489L435.667 108.3L436.059 107.793L436.146 107.445L435.914 107.691L435.348 107.72L434.667 108.793L434.362 108.677Z" fill="#808080"/>
<path d="M443.889 110.823L444.266 110.33L444.396 109.692L444.222 109.837L444.048 109.692L443.7 109.881L443.903 110.403L443.758 110.577L443.889 110.823Z" fill="#808080"/>
<path d="M447.485 107.996L447.137 108.779L447.485 107.996Z" fill="#808080"/>
<path d="M449.558 106.996L449.225 107.039L449.558 106.996Z" fill="#808080"/>
<path d="M449.123 107.778L449.659 107.358L449.326 107.256L449.123 107.778Z" fill="#808080"/>
<path d="M447.238 84.5347H449.138L448.05 84.9842L449.892 85.3467L451.878 84.1142L450.066 83.8677L449.776 84.0417L449.486 83.6647L449.384 84.2447L448.978 83.9982L448.543 83.9837L447.978 83.6357L448.007 83.8967L447.63 83.7952L447.644 84.1287L447.253 83.8242L447.035 84.0562L447.296 84.3027L447.238 84.5347Z" fill="#808080"/>
<path d="M443.628 86.5505L443.99 86.826L443.309 86.043L443.628 86.5505Z" fill="#808080"/>
<path d="M444.106 85.4776L443.802 86.0576L444.324 86.6956L445.063 86.7246L445.614 85.9851L445.658 86.3476L446.107 86.2751L446.31 86.4636L444.875 87.1451L445.339 87.3481L446.383 87.2611L444.947 87.7831L445.469 88.2326L445.977 88.2761L445.73 88.5081L446.151 88.7836L446.499 88.6531L447.717 86.3331L448.355 86.1011L448.456 86.2316L448.528 86.6811L448.717 86.8841L448.63 87.4496L449.123 87.5511L449.413 87.8411L450.515 87.1161L449.717 86.9131L449.631 86.6811L449.225 86.5216L448.934 86.2026L448.833 85.8691L447.499 85.4051L447.296 84.9556L446.876 85.1731L447.006 84.7526L446.47 84.5496L446.194 84.2886L445.991 84.8541L446.31 85.7386L445.382 84.7236L445.179 85.2021L445.034 85.3181L444.643 84.9701L445.078 84.7671L444.788 84.6656L443.976 84.7381L443.555 84.9556V85.5501L444.106 85.4776Z" fill="#808080"/>
<path d="M511.966 117.899L511.516 118.117L511.212 118.827V119.291L511.778 119.088L511.459 118.653L512.72 118.784L513.837 118.204L514.721 117.145L513.677 117.479L512.503 116.551L512.155 116.739L511.966 117.899Z" fill="#808080"/>
<path d="M505.862 125.091L505.63 125.512L505.934 125.338L506.224 126.657L506.819 125.628L506.703 125.251L506.34 124.946L505.862 125.091Z" fill="#808080"/>
<path d="M509.356 122.772L509.023 123.381L507.254 123.685L506.427 124.396V124.758L508.356 124.178L508.588 124.7L509.211 124.657L509.4 124.236L509.574 124.149L510.647 124.106L510.966 123.743L511.473 123.642L511.749 121.858L512.242 121.191L511.981 119.596L511.299 119.828L510.937 121.438L510.11 122.467L509.762 122.279L509.356 122.772Z" fill="#808080"/>
<path d="M507.515 125.338L507.979 125.12L508.341 124.584L507.805 124.526L507.297 124.7L507.225 125.497L507.515 125.338Z" fill="#808080"/>
<path d="M500.772 132.559L501.439 130.688L500.482 131.544L500.772 132.559Z" fill="#808080"/>
<path d="M495.233 134.821L495.509 134.096L494.856 134.067L494.334 134.893L495.233 134.821Z" fill="#808080"/>
<path d="M503.339 140.447L502.715 141.041L502.251 140.925L501.628 141.346L501.425 141.969L502.295 141.505L502.73 142.535L503.295 142.839L503.266 142.071L503.846 141.795L503.716 140.476L503.339 140.447Z" fill="#808080"/>
<path d="M500.279 136.271L500.569 137.547L502.251 138.403L502.889 139.94L503.309 139.418L503.165 138.693L502.193 137.707L501.454 137.576L501.178 137.025L501.541 136.17L501.425 134.995L500.642 134.937L500.54 136.344L500.279 136.271Z" fill="#808080"/>
<path d="M500.584 138.069L501.091 138.692L500.584 138.069Z" fill="#808080"/>
<path d="M499.598 140.143L498.916 141.143L499.888 140.128L500.033 139.476L499.598 140.143Z" fill="#808080"/>
<path d="M502.817 140.157L502.425 140.447L502.817 140.157Z" fill="#808080"/>
<path d="M502.251 139.65L501.439 138.954L501.468 139.766L501.758 139.592L501.874 140.723L502.454 139.751L502.251 139.65Z" fill="#808080"/>
<path d="M517.476 148.857L516.824 149.307L515.678 149.379L516.548 149.799L517.665 149.162L517.824 148.625L517.476 148.857Z" fill="#808080"/>
<path d="M518.186 148.784L518.013 148.175L517.853 148.219L518.186 148.784Z" fill="#808080"/>
<path d="M515.243 149.683L509.82 146.972L508.472 148.103L507.906 146.624L506.674 146.464L506.224 146.856L506.5 147.015L506.804 147.421L507.66 147.45L507.616 147.639L506.833 147.827L507.167 148.349L510.067 149.35L510.371 150.031L510.357 150.568L509.849 151.061L511.096 150.959L512.242 151.655L513.213 150.785L514.33 151.046L515.519 152.206L516.65 152.409L516.563 152.047L515.635 151.365L515.127 150.075L515.243 149.683Z" fill="#808080"/>
<path d="M479.703 140.737L479.486 142.085L479.762 142.97L480.574 142.1L479.703 140.737Z" fill="#808080"/>
<path d="M463.145 154.004L462.956 154.193L462.884 154.613L462.304 155.15L462.289 155.469L460.506 156.426L460.027 160.921L460.375 162.037L461.303 162.284L461.84 162.052L463.406 156.179L463.725 156.107L463.145 154.004Z" fill="#808080"/>
<path d="M465.421 139.301L465.958 139.171L465.421 139.301Z" fill="#808080"/>
<path d="M514.533 172.463L513.619 172.188L513.866 173.391L514.576 174.305L514.881 174.073L514.997 173.754L515.316 173.826L515.446 172.246L514.533 172.463Z" fill="#808080"/>
<path d="M505.775 153.309L506.471 153.12L505.775 153.309Z" fill="#808080"/>
<path d="M509.139 168.838L509.791 168.736L509.139 168.838Z" fill="#808080"/>
<path d="M518.419 163.371L518.259 161.921L517.085 160.616L516.896 159.993L516.679 159.804L516.374 159.833L515.852 158.543L514.62 157.745L513.605 154.787L513.184 154.802L512.503 152.525L512.155 152.96L511.749 156.107L511.285 156.817L508.733 155.164L508.82 154.367L509.168 154.077L509.342 153.671L509.226 153.381L509.023 153.627L508.82 153.308L508.414 153.511L506.877 152.83L507.08 153.221L506.253 153.511L505.499 154.686L505.528 155.193L504.905 155.295L503.977 154.526L503.672 154.729L503.513 155.005L503.092 155.034L503.005 155.295L502.744 155.498L502.643 156.092L502.251 156.049L502.338 156.498L502.164 156.817L501.961 156.368L501.541 156.614L501.512 157.31L500.743 158.18L497.481 159.543L497.191 159.978L497.133 159.616L496.857 160.051L496.785 161.689L497.089 162.487L496.77 162.182L496.93 162.603L496.553 162.284L498.017 166.112L497.901 166.909L497.597 167.417L497.742 167.808L498.133 168.185L499.163 168.287L506.282 165.822L507.877 166.431L507.906 166.793L508.385 167.301L508.515 167.968L509.951 166.779L509.385 168.113L509.878 168.055L510.183 167.881L510.11 168.533L510.502 168.504L511.241 170.099L512.88 170.766L513.561 170.317L513.779 170.418L513.88 170.592L514.025 170.476L514.562 170.984L515.316 170.215L516.432 169.983L518.419 163.371Z" fill="#808080"/>
<path d="M526.118 176.827L526.321 176.552L526.118 176.827Z" fill="#808080"/>
<path d="M462.956 97.1064L463.942 96.8599L463.464 96.4829L462.956 97.1064Z" fill="#808080"/>
<path d="M465.059 94.1338L465.146 94.5688L465.349 94.3658L466.436 95.0908L467.814 95.0473L467.089 94.3513L466.9 93.0753L468.394 90.7408L473.889 87.6958L467.379 89.8128L466.813 91.0018L466.364 91.2773L466.161 92.0458L465.32 92.6258L465.494 93.0318L464.522 93.8003L465.059 94.1338Z" fill="#808080"/>
<path d="M485.794 81.6206L485.083 81.7511L485.794 81.6206Z" fill="#808080"/>
<path d="M513.17 90.8861L512.474 90.1611L511.589 90.6541L513.17 90.8861Z" fill="#808080"/>
<path d="M511.908 89.7549L511.401 90.0014L511.908 89.7549Z" fill="#808080"/>
<path d="M487.026 83.3313L486.664 83.8678L489.085 84.6798L489.694 83.5488L488.505 82.9253L487.026 83.3313Z" fill="#808080"/>
<path d="M489.462 85.7384L492.71 84.7814L492.014 84.2884L491.246 84.4914L491.304 84.1724L490.999 83.7954L490.434 84.0419L490.245 84.5349L489.839 84.8829L489.462 85.7384Z" fill="#808080"/>
<path d="M510.284 89.1025L512.532 88.885L512.488 88.189L513.474 88.827L513.851 88.2905L513.721 87.783L512.561 87.5655L511.792 87.812L510.763 87.29L509.849 88.7255L510.284 89.1025Z" fill="#808080"/>
<path d="M512.981 110.142L512.633 109.432L512.3 115.913L512.648 115.507L513.112 115.942L512.648 114.71L512.807 113.738L513.445 113.651L513.619 113.535L512.981 110.142Z" fill="#808080"/>
<path d="M496.277 89.9434L495.958 90.2334L496.915 90.0304L496.277 89.9434Z" fill="#808080"/>
<path d="M515.983 89.0009L517.273 88.6819L515.04 88.1309L514.663 88.5514L515.983 89.0009Z" fill="#808080"/>
<path d="M486.2 82.8676L486.069 83.0996L485.692 83.3171L486.171 83.6651L488.259 82.6791L488.404 82.1716L487.78 81.2871L486.417 82.0411L486.185 82.4616L486.2 82.8676Z" fill="#808080"/>
<path d="M537.443 98.4259L538.052 98.5564L537.936 98.3824H538.052H538.342L538.69 97.8749L536.892 96.9614H536.181L536.5 97.1499L536.428 97.5414L536.08 97.3819V96.7729L535.877 96.4539L528.119 93.9019L527.945 94.2934L528.206 94.7719L528.076 95.3519L526.8 94.6994L527.452 94.3514L526.771 94.0614L526.133 94.6414H523.146L523.044 95.2069L522.899 94.6269L522.189 94.3659L522.29 93.9744L521.406 93.1479L518.114 93.3364L517.969 93.0464L516.403 92.5244V92.3359L516.838 92.0894L515.113 91.8284L514.794 92.4229H514.214L514.634 92.1184L514.04 91.9299L514.33 91.7704H514.75L511.85 91.3499L511.734 91.6254L510.763 92.2199H511.198L511.053 92.5389L511.212 92.9449H510.27L510.125 93.0754V93.3219L508.95 92.7999L508.327 93.0464L507.225 92.7129L506.587 93.8149L506.253 93.6989L504.963 92.3214H505.572L505.224 91.0454L504.861 90.7844H503.948L502.86 90.2334L502.338 90.8569V91.3064L499.627 91.3499L499.844 91.0599H497.031V91.3789L496.944 90.7989L496.669 90.7264L496.118 90.8424L495.509 90.5089L494.9 90.9149L495.219 91.0019L492.884 91.9009L493.015 91.4804L495.915 89.7839L496.176 89.4504L496.814 89.1459L497.06 88.7834L496.828 88.5804L497.089 88.4644L496.915 87.9134H496.567L496.451 87.4204L494.233 87.2899L493.885 87.5219L493.218 87.6234L493.595 87.0434L492.145 86.9274L492.797 86.6229V86.3909L491.797 86.1299L491.086 86.3184L490.144 87.3769L490.245 87.6234L489.129 87.8989L489.477 88.1744L487.925 88.3629L488.07 88.0294L487.563 88.1889H487.215L486.359 88.4644L486.678 88.6964L483.517 89.6824L483.445 89.8274L483.242 89.9869L483.387 90.1899H482.937L483.459 90.5524H483.053L483.459 90.9294V91.1904L480.4 91.5819L480.24 92.6114L480.951 93.0174L481.255 93.5829L478.761 92.7709L478.428 93.0754L478.935 93.3509L477.92 93.5974L479.109 94.4819L479.022 94.6559L478.413 94.3224H477.514L477.616 93.3364L477.384 92.6114L477.108 93.4814L476.485 93.8729L476.267 94.2354L476.876 95.0474L476.586 96.6569H476.992L477.601 96.4974L478.616 96.8454L478.819 97.3094L478.573 97.7444L479.182 98.1939H478.587L478.355 97.8314L478.486 97.3964L477.877 96.7874L477.065 97.0629L477.181 97.8749L475.861 99.4989H474.411L474.15 99.2524L475.035 99.4119L476.238 98.1939L476.485 97.2949L476.064 96.7874L476.18 94.9894L475.745 94.3369L476.151 92.8869L474.484 92.6404L472.918 94.9894L473.208 95.0619L472.947 96.2364L473.57 96.4829L473.788 96.9614L474.107 97.1354L473.788 97.7299L468.626 95.6274L468.785 96.1204L469.51 96.5409L469.742 97.0194L469.583 97.3529L468.945 97.7009V97.1499L468.626 96.8889L467.828 97.3674H466.944L466.451 97.7734H465.74L466.117 97.0194L465.392 97.2804L465.291 97.6139L465.059 97.4689L462.782 98.4839L462.666 99.1219L461.767 99.2814L461.361 98.8464V98.4694L462.202 98.2519L461.883 97.7009L460.564 97.4399L460.81 98.0779L460.607 98.7449L460.97 99.4699L460.81 99.9339H460.578L460.433 99.7744L459.897 99.6729L458.606 100.528L458.853 101.514L457.678 101.355L457.084 100.978L456.765 101.311L456.924 101.659L457.432 101.833V102.196L457.04 102.283L456.156 101.862L455.75 101.094V100.34L454.3 99.1074L457.577 100.093L459.099 99.2814V98.5854L454.517 96.6424L454.909 96.4974L454.561 96.3379L453.879 96.4249H453.256L452.922 96.1349H453.183L453.894 95.8449L453.618 95.5549L452.951 95.2794L452.415 95.6564V95.3229L452.197 95.0039L451.559 95.8159V95.2649L450.733 96.0624L450.82 95.6854L451.153 95.2069V94.9894L450.863 95.2649H450.501L450.399 95.4969L449.935 95.7289L449.747 96.3089L449.558 95.9319L449.95 95.3809L449.341 95.5549V95.9464L449.196 96.0769H448.804L449.094 96.3669H448.848L448.572 96.1784L448.398 96.3089L448.514 96.6859L448.34 96.5699H448.05V96.2219H447.688L447.543 96.3959V96.6714L447.369 96.8164L446.832 96.9034L446.571 97.3239H446.89L446.963 97.5414V97.6864H446.687L446.47 97.5414L446.18 97.7154L446.296 97.2224L444.846 98.5419H445.02L446.542 97.9909V98.3099L446.397 98.4114L446.194 98.2954L445.063 99.9339L444.976 100.369L444.57 100.456L444.498 101.413L443.816 101.616L444.106 101.964L443.483 102.283L442.917 103.109L442.627 102.863V103.196L441.844 103.631L442.12 103.863H441.67L440.8 104.4H440.597L440.365 104.675L440.568 104.965L440.409 106.038L440.684 106.125L441.047 105.966L441.148 106.14L440.873 106.401H440.67L440.496 106.575V106.923H441.061L440.8 107.3L441.351 107.778L441.96 107.938L442.917 107.097L443.28 107.01L443.41 106.575L444.686 110.142H445.092L445.44 109.591H445.875L446.18 109.315L446.354 109.402L446.6 108.75H446.412L446.484 107.503L447.557 106.14L447.064 105.531L446.702 105.429L446.629 104.762L447.572 102.979L448.862 101.935V101.355L449.051 100.876L449.399 100.557L450.225 100.485L450.646 100.673L450.834 101.123L448.746 103.414V105.444L450.124 105.966L452.212 105.415L452.458 105.052L452.212 105.415L452.429 105.328L452.763 105.705L453.212 105.806L450.138 106.56L449.819 106.908L449.935 107.271L450.24 107.474L450.341 107.706V108.286L449.906 108.518L449.442 107.923L448.949 108.199L448.659 109.243V110.055L448.746 110.142L448.572 110.461H447.978V110.606L447.688 110.78L447.441 110.417L445.353 111.287L445.034 111.113V110.765L443.976 111.316L443.149 110.794L442.903 110.359H443.541L443.352 109.997H443.12L443.265 109.62L443.599 109.417L443.352 109.141V108.228L442.656 108.663V108.924L442.25 108.75L441.989 109.185L442.497 111.403L442.279 111.635H441.496V111.751L440.844 111.853L440.641 112.259H440.394L440.148 112.404L439.495 113.448L438.959 113.694L437.77 115.144L437.117 114.898L436.813 115.144L436.885 115.768H436.45L436.131 115.594H435.624L435.305 115.884V116.246L436.45 116.609L437.161 117.827L436.842 119.61L433.579 119.378L433.144 119.697V124.047H434.232L434.855 124.714L435 124.7L436.45 124.424L437.799 122.974V122.104L439.249 120.872L439.466 120.379V120.219L439.901 119.625L440.844 119.842L442.381 118.9L445.962 122.206V123.308L446.528 122.452L446.296 122.003L446.789 121.727H447.18L444.28 118.827V118.233L444.512 117.885H444.846L445.02 118.305L445.426 118.494L445.89 119.306L447.63 120.451L447.731 120.161L447.63 120.451L447.76 121.684L448.108 122.177L448.398 122.684L449.225 122.989H448.674L449.051 123.888L449.544 124.134L449.5 123.54H449.863L449.631 123.322L449.819 123.192H450.196L450.022 122.713H449.587L449.761 122.394L449.341 121.742L449.602 121.568H450.022L450.124 121.118L450.443 121.234L450.834 121.002L451.487 121.336L451.98 120.988L452.676 120.901L452.284 120.538L451.98 119.654L452.502 119.016V118.697L453.038 117.885L453.734 116.826L454.314 116.71V117.102L455.17 117.218L454.474 117.667L454.996 117.928V118.378L456.62 117.87L456.083 117.725L455.663 117.261L457.939 116.348L457.301 116.797L457.49 117.116L456.765 117.87L459.099 119.625L459.288 120.234L459.172 120.437L457.287 120.872L455.431 120.219L452.69 120.915L452.429 121.379L451.342 121.51L451.226 121.945L451.443 122.104V123.279L452.052 123.801L452.313 123.888L452.632 124.25L453.734 123.873L454.445 124.323L454.981 124.207L455.474 123.844L455.88 123.946L456.272 123.815L455.793 126.15L456.069 126.28V126.628V126.28L455.793 126.164L455.3 127.6L450.675 127.266L449.225 126.628L448.065 127.324L448.137 128.093L446.368 127.745L445.513 127.005L443.976 126.686L443.149 126.048L443.555 125.628L443.671 124.323L443.599 124.105L438.669 124.424L436.856 125.541L434.899 125.077L434.319 126.28L433.536 126.73L432.854 127.803V128.702L429.084 134.502L429.49 136.111L429.113 138.257L429.2 139.2V139.548V139.823L433.681 144.55L436.334 144.217L436.726 144.362L439.423 143.187L440.206 143.39L440.974 144.492L442.279 144.246L442.497 144.565L442.888 144.652L443.033 145.232L442.932 145.754L442.801 146.537L442.714 146.653L442.917 146.957L442.424 147.581L444.715 151.931L444.628 152.554L444.962 153.787L443.874 157.455L447.18 168.2L447.673 168.591L451.168 167.794L454.227 164.314L454.503 163.038L454.3 162.806L455.75 161.646L455.547 158.847L458.621 155.744L457.649 150.582L464.174 139.823L463.841 139.62L460.274 140.331L459.998 139.997L459.926 140.099L459.998 139.997L459.723 139.881L460.027 139.591L454.358 128.267L455.242 129.717L455.561 128.876L460.085 139.026L464.319 137.445L464.827 136.836L466.277 136.372L466.48 135.908L467.06 135.778L467.408 135.227L467.741 135.038L467.915 134.226L468.785 133.182V132.863L468.336 132.24L467.466 131.892L467.031 130.529L466.407 131.341L464.783 132.095H464.682L464.464 131.718V130.79L464.116 131.37L462.753 128.47V128.368L463.725 128.107L464.551 129.557L466.393 130.398L467.234 130.108L467.64 130.877L472.686 131.196L473.034 131.921L474.063 132.689H474.643L473.918 132.994L475.035 133.994L475.76 133.052L478.254 141.752L479.24 140.809L480.052 136.981L483.053 134.197L483.213 133.574L485.388 132.53L486.838 135.43L486.765 136.387L486.983 136.706H487.505L487.954 136.097L488.23 136.329L490.39 144.579L491.927 145.681L491.55 143.55L489.317 140.65L489.68 138.475L490.129 138.315L491.13 139.011L491.275 139.548H491.608V139.867H492.029L492.319 140.157L492.174 140.679L492.435 140.911L493.189 139.939L494.247 139.461L494.653 138.663L494.537 137.213L492.797 134.226L493.841 132.979L494.769 132.878L495.03 133.646L495.175 133.385L496.959 132.153L498.409 131.979L500.207 130.21V129.63L500.584 129.427L501.599 127.542L500.874 127.237L501.439 126.918L500.642 126.222H501.41L500.468 124.7L500.004 124.337L500.511 123.453L501.729 122.8L501.425 122.423L500.903 122.206L500.192 122.742L499.859 122.264L499.308 122.075V121.321L501.512 120.161L501.062 121.452H501.439L502.425 120.799H502.686L503.295 121.133L502.976 121.785L503.078 122.148L503.339 122.293L503.759 122.191H503.875L504.049 122.51L503.89 124.439L505.441 123.786L505.659 123.525L504.963 121.669L504.484 121.176L504.644 120.64L505.572 119.973L505.76 119.248L506.5 118.479L506.935 118.189L507.558 118.566L511.024 114.492L512.01 110.446L511.067 109.518H510.603L510.27 109.968H509.965V109.373L509.632 109.808L509.559 109.199H508.95V108.75L513.3 104.907L516.969 104.617L517.752 104.907L517.476 105.299L519.521 104.893L519.303 104.704V104.197L520.753 102.573L521.652 102.457L522 102.616L522.392 102.428L522.131 102.993L522.435 103.225L522.29 103.472L523.842 102.645L523.958 102.051L524.886 101.659V101.804L521.043 106.009L520.536 106.14L519.854 108.271L520.463 111.94L521.304 111.026L521.42 110.403L521.783 110.127L522.189 110.026V109.518L522.696 108.953L523.349 108.808L523.247 108.213L523.639 107.474H524.059L523.798 107.082L523.9 106.082H523.552L523.479 105.458L524.349 104.139H524.828L525.031 104.24L525.567 103.646L525.683 104.168L526.191 103.834L527.539 103.689L527.945 104.052L528.163 103.689L531.715 101.5H532.788V101.021L531.614 99.4844L531.164 99.3829L531.701 99.1944L531.991 99.4844H532.6L533.325 99.0494L533.484 98.7304L533.383 98.3824V98.0779L533.586 97.8749H533.876V98.1939L534.064 98.5999L535.514 98.8899L535.891 99.3974L536.718 99.7454H537.356L537.109 99.4119H537.37V98.5129L537.53 98.4404L537.443 98.4259Z" fill="#808080"/>
<path d="M475.441 92.017L474.861 91.7705L474.629 92.249L475.441 92.017Z" fill="#808080"/>
<path d="M479.602 92.1621L479.196 92.3651L479.602 92.1621Z" fill="#808080"/>
<path d="M397.416 132.893L397.228 133.067L397.605 133.69L397.416 132.893Z" fill="#808080"/>
<path d="M405.739 141.897L406.131 141.825L406.102 141.491L405.725 141.622L405.739 141.897Z" fill="#808080"/>
<path d="M494.015 148.06L493.74 148.205L494.015 148.06Z" fill="#808080"/>
<path d="M502.135 151.351L502.309 151.163L500.178 151.467L501.048 151.627L502.135 151.351Z" fill="#808080"/>
<path d="M498.96 151.191L498.467 151.264L498.22 151.597L498.989 151.713L499.743 151.452L498.96 151.191Z" fill="#808080"/>
<path d="M502.947 151.989L503.078 151.829L504.252 151.191L503.455 151.22L502.527 151.742L502.28 152.424L502.947 151.989Z" fill="#808080"/>
<path d="M504.644 148.103L506.065 148.465L505.688 147.856L504.644 148.103Z" fill="#808080"/>
<path d="M500.729 152.322L499.743 152.047L500.221 152.293L500.729 152.322Z" fill="#808080"/>
<path d="M503.556 148.146L504.209 148.335L503.556 148.146Z" fill="#808080"/>
<path d="M499.67 147.784L500.221 149.698L500.482 149.104L500.424 148.016L500.772 148.248L501.048 148.857L501.526 148.915L501.28 147.262L502.092 146.595L500.99 146.972L500.337 146.407L503.034 145.29L502.469 145.551L501.12 145.406L500.468 145.725L499.67 147.784Z" fill="#808080"/>
<path d="M504.731 145.304L504.368 145.087L504.644 146.392L505.05 145.464L504.731 145.304Z" fill="#808080"/>
<path d="M488.099 145.565L488.433 146.029L488.099 145.565Z" fill="#808080"/>
<path d="M488.868 147.073L489.114 147.392L488.868 147.073Z" fill="#808080"/>
<path d="M497.263 151.409L497.901 151.424L497.365 151.061L496.437 150.916L496.973 150.496L492.855 150.061L492.594 150.409L493 150.496L493.276 150.829L497.263 151.409Z" fill="#808080"/>
<path d="M494.32 145.928L495.567 148.132L495.987 148.35L496.698 148.248L497.379 148.596L498.148 148.437L498.873 146.175L499.685 145.653L499.003 143.739L499.902 143.072L499.54 142.738L499.061 142.593L498.583 142.144L497.756 143.333L497.481 143.478L497.104 143.42L496.64 144.261L495.857 144.536L495.509 145.305L494.668 145.087L494.32 145.928Z" fill="#808080"/>
<path d="M492.783 148.958L492.87 148.335L493.087 148.19L493.102 147.827L492.667 147.349L492.594 147.624L492.812 147.9L492.478 147.798L487.186 143.086L492.029 149.843H492.594L492.783 148.958Z" fill="#808080"/>
<path d="M445.411 123.163L444.773 123.178L444.338 123.439L445.469 124.149L445.817 123.192L445.411 123.163Z" fill="#808080"/>
<path d="M442.047 121.365L442.453 122.685L442.816 122.424L442.903 121.467L442.424 121.264L442.047 121.365Z" fill="#808080"/>
<path d="M384.729 114.405C384.754 116.013 384.157 117.568 383.063 118.746C381.968 119.924 380.461 120.634 378.856 120.727C378.076 120.728 377.303 120.571 376.585 120.266C375.867 119.961 375.218 119.514 374.676 118.952C374.134 118.39 373.712 117.725 373.434 116.996C373.155 116.267 373.027 115.489 373.056 114.71C373.026 113.113 373.612 111.566 374.692 110.389C375.772 109.212 377.263 108.495 378.856 108.388C379.642 108.377 380.423 108.527 381.15 108.828C381.876 109.128 382.534 109.573 383.084 110.136C383.633 110.699 384.062 111.368 384.345 112.102C384.628 112.836 384.758 113.619 384.729 114.405V114.405Z" fill="white"/>
<path d="M393.849 139.736C393.85 140.476 393.569 141.189 393.062 141.728C392.555 142.267 391.862 142.592 391.123 142.636C390.76 142.637 390.4 142.564 390.065 142.422C389.73 142.28 389.427 142.073 389.174 141.812C388.921 141.551 388.723 141.241 388.592 140.902C388.461 140.563 388.4 140.201 388.412 139.838C388.41 139.1 388.69 138.39 389.193 137.851C389.697 137.312 390.387 136.986 391.123 136.938C391.487 136.938 391.848 137.011 392.183 137.152C392.519 137.294 392.823 137.501 393.077 137.762C393.331 138.023 393.53 138.332 393.663 138.671C393.795 139.01 393.859 139.372 393.849 139.736V139.736Z" fill="white"/>
<path d="M460.1 137.852C460.132 140.568 459.103 143.189 457.231 145.158C455.36 147.127 452.794 148.287 450.08 148.393C448.754 148.399 447.441 148.14 446.217 147.629C444.993 147.119 443.884 146.369 442.955 145.422C442.027 144.476 441.297 143.353 440.81 142.12C440.323 140.887 440.088 139.569 440.119 138.243C440.086 135.537 441.107 132.923 442.966 130.956C444.825 128.989 447.376 127.822 450.08 127.702C451.41 127.69 452.729 127.945 453.959 128.452C455.188 128.96 456.304 129.709 457.238 130.656C458.173 131.603 458.907 132.727 459.399 133.963C459.89 135.199 460.129 136.522 460.1 137.852V137.852Z" fill="white"/>
<path d="M479.747 99.209C479.755 100.384 479.306 101.517 478.494 102.367C477.682 103.216 476.571 103.717 475.397 103.762C474.82 103.782 474.246 103.684 473.709 103.472C473.172 103.261 472.684 102.941 472.276 102.533C471.868 102.125 471.548 101.637 471.337 101.1C471.125 100.563 471.027 99.9887 471.047 99.412C471.042 98.2378 471.493 97.1074 472.304 96.2584C473.115 95.4094 474.224 94.9078 475.397 94.859C475.973 94.8409 476.547 94.941 477.083 95.1532C477.619 95.3654 478.106 95.6852 478.513 96.0928C478.921 96.5004 479.241 96.9872 479.453 97.5231C479.665 98.0591 479.765 98.6329 479.747 99.209V99.209Z" fill="white"/>
<path d="M490.245 124.889C490.257 126.227 489.748 127.517 488.825 128.486C487.902 129.455 486.638 130.027 485.301 130.08C484.648 130.088 484.001 129.964 483.398 129.718C482.794 129.471 482.246 129.105 481.787 128.643C481.327 128.18 480.965 127.63 480.721 127.025C480.478 126.42 480.359 125.773 480.371 125.121C480.362 123.787 480.871 122.503 481.79 121.537C482.71 120.572 483.968 120 485.301 119.944C485.953 119.932 486.601 120.052 487.207 120.296C487.812 120.541 488.362 120.905 488.823 121.366C489.285 121.828 489.648 122.377 489.893 122.983C490.137 123.588 490.257 124.236 490.245 124.889V124.889Z" fill="white"/>
<path d="M510.777 95.4827C510.782 96.6315 510.343 97.7377 509.551 98.57C508.759 99.4023 507.676 99.8963 506.529 99.9487C505.972 99.9604 505.418 99.8599 504.901 99.6531C504.384 99.4463 503.914 99.1375 503.519 98.7451C503.124 98.3526 502.812 97.8846 502.601 97.369C502.391 96.8533 502.287 96.3006 502.295 95.7437C502.305 94.6088 502.749 93.5209 503.537 92.7037C504.324 91.8865 505.395 91.4021 506.529 91.3502C507.081 91.3327 507.632 91.4267 508.148 91.6267C508.664 91.8267 509.134 92.1286 509.53 92.5143C509.927 92.9 510.242 93.3616 510.456 93.8716C510.67 94.3816 510.779 94.9295 510.777 95.4827V95.4827Z" fill="white"/>
<path d="M493.145 694.507C514.407 694.507 531.642 689.158 531.642 682.559C531.642 675.96 514.407 670.611 493.145 670.611C471.883 670.611 454.647 675.96 454.647 682.559C454.647 689.158 471.883 694.507 493.145 694.507Z" fill="#88AFFF"/>
<path opacity="0.5" d="M493.145 694.507C514.407 694.507 531.642 689.158 531.642 682.559C531.642 675.96 514.407 670.611 493.145 670.611C471.883 670.611 454.647 675.96 454.647 682.559C454.647 689.158 471.883 694.507 493.145 694.507Z" fill="white"/>
<path d="M462.144 619.252C457.468 627.11 455.054 636.107 455.17 645.25C455.17 667.392 468.22 685.357 484.271 685.357C500.323 685.357 513.373 667.392 513.373 645.25C513.491 636.099 511.082 627.093 506.413 619.223L462.144 619.252Z" fill="white" stroke="#263238" stroke-linecap="round" stroke-linejoin="round"/>
<path d="M506.804 620.267C507.007 623.848 497.132 626.792 484.749 626.835C472.366 626.879 462.173 624.008 461.97 620.426C461.767 616.845 471.627 613.916 484.01 613.872C496.393 613.829 506.601 616.685 506.804 620.267Z" fill="white" stroke="#263238" stroke-linecap="round" stroke-linejoin="round"/>
<path d="M505.021 622.906C501.309 620.716 493.507 619.208 484.532 619.252C475.556 619.295 467.625 620.89 464.232 623.181C467.944 625.371 475.76 626.864 484.721 626.835C493.682 626.806 501.7 625.182 505.021 622.906Z" fill="#263238" stroke="#263238" stroke-linecap="round" stroke-linejoin="round"/>
<path d="M430.273 429.2C430.273 429.2 432.97 434.319 430.563 439.118C428.156 443.918 425.169 448.732 426.967 451.139C428.765 453.546 434.217 456.547 433.579 461.651C432.941 466.755 425.764 476.978 430.273 482.691C434.782 488.404 442.294 488.099 442.584 494.407C442.874 500.714 435.333 505.818 437.479 511.531C439.625 517.244 451.979 518.448 451.979 522.348C451.979 526.249 447.165 530.454 451.08 534.673C454.995 538.893 473.874 549.84 476.586 545.345C479.297 540.85 484.72 528.351 481.153 510.661C480.544 507.689 476.31 507.022 475.716 502.817C475.121 498.612 476.919 491.101 473.903 486.867C470.887 482.633 461.288 481.154 460.694 477.848C460.099 474.542 464.29 466.436 460.085 461.318C455.88 456.199 445.962 453.807 445.962 450.515C445.962 447.224 448.978 442.99 444.759 438.495C440.539 434 430.273 429.2 430.273 429.2Z" fill="#88AFFF"/>
<path d="M444.657 464.624C450.921 483.474 461.868 509.095 466.32 521.464C471.729 536.486 476.47 547.361 478.834 562.383C479.95 569.372 480.835 594.848 481.458 620.122" stroke="#263238" stroke-linecap="round" stroke-linejoin="round"/>
<path d="M431.766 431.027C431.766 431.027 436.885 435.232 441.38 453.56C441.685 454.735 442.018 455.982 442.381 457.287" stroke="#263238" stroke-linecap="round" stroke-linejoin="round"/>
<path d="M524.189 463.449C523.579 464.675 523.241 466.019 523.198 467.388C523.156 468.757 523.41 470.119 523.943 471.381C525.871 475.238 528.293 479.08 526.843 481.009C525.393 482.937 521.043 485.359 521.565 489.419C522.087 493.479 527.814 501.686 524.204 506.253C520.593 510.821 514.59 510.603 514.344 515.635C514.097 520.666 520.144 524.77 518.433 529.337C516.722 533.905 506.833 534.862 506.833 538.037C506.833 541.213 510.675 544.533 507.558 547.897C504.44 551.261 489.302 560.048 487.142 556.438C484.981 552.827 480.632 542.851 483.488 528.685C483.966 526.307 487.359 525.785 487.838 522.406C488.316 519.028 486.881 513.025 489.288 509.661C491.695 506.297 499.438 505.093 499.858 502.411C500.279 499.728 496.958 493.261 500.337 489.187C503.715 485.112 511.647 483.169 511.647 480.487C511.647 477.804 509.24 474.469 512.604 470.859C515.968 467.248 524.189 463.449 524.189 463.449Z" fill="#88AFFF"/>
<path d="M512.677 491.782C507.674 506.906 498.902 527.38 495.277 537.269C490.927 549.289 487.185 558.004 485.257 570.024C484.3 576.027 483.561 599.169 483.053 620.774" stroke="#263238" stroke-linecap="round" stroke-linejoin="round"/>
<path d="M522.986 464.899C522.986 464.899 518.897 468.263 515.301 482.923C515.055 483.88 514.794 484.866 514.489 485.924" stroke="#263238" stroke-linecap="round" stroke-linejoin="round"/>
<path d="M441.51 531.541C442.019 532.566 442.299 533.69 442.332 534.834C442.364 535.978 442.148 537.115 441.699 538.168C440.104 541.387 438.088 544.591 439.292 546.201C440.495 547.81 444.121 549.811 443.715 553.233C443.309 556.655 438.494 563.485 441.51 567.298C444.526 571.112 449.544 570.909 449.747 575.128C449.95 579.348 444.918 582.77 446.324 586.583C447.731 590.397 455.967 591.209 455.967 593.833C455.967 596.458 452.748 599.256 455.372 602.069C457.997 604.882 470.612 612.219 472.424 609.203C474.237 606.187 477.862 597.85 475.469 586.003C475.078 584.017 472.236 583.567 471.844 580.754C471.453 577.941 472.642 572.924 470.641 570.111C468.64 567.298 462.202 566.298 461.796 564.079C461.39 561.861 464.203 556.452 461.39 553.03C458.577 549.608 451.95 548.013 451.95 545.78C451.95 543.547 453.966 540.763 451.153 537.747C448.34 534.731 441.51 531.541 441.51 531.541Z" fill="#88AFFF"/>
<path d="M451.124 555.205C455.314 567.835 462.637 584.945 465.624 593.21C469.249 603.258 472.381 610.523 473.991 620.571" stroke="#263238" stroke-linecap="round" stroke-linejoin="round"/>
<path d="M442.511 532.745C442.511 532.745 445.918 535.558 448.934 547.81C449.137 548.593 449.355 549.434 449.602 550.304" stroke="#263238" stroke-linecap="round" stroke-linejoin="round"/>
<path d="M544.983 526.539C544.251 527.417 543.719 528.444 543.424 529.548C543.128 530.652 543.076 531.807 543.272 532.933C544.098 536.442 545.316 540.024 543.779 541.314C542.242 542.605 538.255 543.736 537.863 547.114C537.472 550.493 540.604 558.294 536.805 561.31C533.006 564.326 528.105 562.992 526.988 567.11C525.872 571.228 529.888 575.65 527.699 579.043C525.509 582.436 517.244 581.334 516.65 583.872C516.055 586.409 518.535 589.889 515.359 592.035C512.184 594.181 498.191 598.43 497.118 595.08C496.045 591.731 494.421 582.784 499.453 571.808C500.308 569.966 503.15 570.184 504.194 567.53C505.238 564.877 505.209 559.729 507.805 557.38C510.4 555.031 516.896 555.597 517.781 553.538C518.665 551.479 517.186 545.563 520.681 542.88C524.175 540.198 531.019 540.154 531.527 537.994C532.034 535.833 530.715 532.643 534.151 530.352C537.588 528.061 544.983 526.539 544.983 526.539Z" fill="#88AFFF"/>
<path d="M530.207 547.375C523.247 558.714 512.198 573.693 507.399 581.059C501.599 590.005 494.61 595.733 493 605.709C492.507 608.783 492.086 614.408 491.724 620.759" stroke="#263238" stroke-linecap="round" stroke-linejoin="round"/>
<path d="M543.75 527.481C543.75 527.481 539.777 529.439 534.035 540.676C533.672 541.401 533.266 542.126 532.817 542.953" stroke="#263238" stroke-linecap="round" stroke-linejoin="round"/>
<path d="M240.28 711.95C273.345 711.95 300.15 703.985 300.15 694.159C300.15 684.333 273.345 676.367 240.28 676.367C207.214 676.367 180.409 684.333 180.409 694.159C180.409 703.985 207.214 711.95 240.28 711.95Z" fill="#3F68BB"/>
<path opacity="0.5" d="M240.28 711.95C273.345 711.95 300.15 703.985 300.15 694.159C300.15 684.333 273.345 676.367 240.28 676.367C207.214 676.367 180.409 684.333 180.409 694.159C180.409 703.985 207.214 711.95 240.28 711.95Z" fill="white"/>
<path d="M176.77 480.849C176.77 480.849 179.249 502.773 180.308 514.098C181.366 525.422 184.194 557.598 183.846 561.498C183.498 565.399 179.96 605.825 179.96 621.383C179.96 636.942 182.077 658.88 182.077 658.88C182.077 658.88 178.539 664.883 179.249 668.073C179.963 670.738 180.448 673.46 180.699 676.208C180.777 677.646 181.015 679.071 181.41 680.456C181.41 680.456 186.717 683.994 189.907 684.342C193.097 684.69 199.448 682.573 199.448 681.515C199.448 680.456 202.275 669.842 202.275 665.942C202.275 662.041 202.275 663.477 203.348 658.17C204.421 652.863 215.717 579.536 217.138 572.808C218.559 566.08 220.676 515.519 220.676 515.519L223.155 520.115C223.155 520.115 229.158 574.229 228.81 580.247C228.462 586.264 226.331 609.247 227.36 619.861C228.39 630.475 230.55 656.647 230.55 659.475C230.55 662.302 229.84 668.668 229.84 671.147C229.84 673.627 227.723 677.513 228.781 679.282C229.649 680.981 230.358 682.758 230.898 684.589C230.898 684.589 243.644 686.706 247.167 686.706C250.691 686.706 253.547 683.53 253.547 683.53V677.513C253.547 674.323 254.243 671.495 254.243 668.32C254.243 665.144 254.606 658.416 254.606 653.457C254.828 648.717 255.312 643.992 256.056 639.305C256.418 636.13 261.363 598.995 262.073 585.191C262.784 571.387 265.959 540.241 265.959 535.326C265.959 530.41 265.611 484.039 265.611 484.039L264.901 475.542C264.901 475.542 227.766 480.501 210.076 478.022C192.386 475.542 177.886 474.832 177.886 474.832L176.77 480.849Z" fill="#263238" stroke="#263238" stroke-linecap="round" stroke-linejoin="round"/>
<path d="M200.796 675.888C199.959 676.621 198.968 677.156 197.896 677.454C195.953 678.034 194.779 678.426 193.227 676.28C191.676 674.134 188.544 671.611 185.977 672.771C183.411 673.931 180.525 675.671 179.945 677.121C179.365 678.571 179.742 692.708 179.742 695.449C179.742 698.189 185.006 699.335 190.269 699.538C193.588 699.579 196.844 698.63 199.622 696.812C199.622 696.812 204.102 697.189 205.668 695.246C207.234 693.303 206.451 688.808 205.465 687.256C204.479 685.705 203.725 684.356 202.348 681.601C201.493 679.805 200.968 677.87 200.796 675.888V675.888Z" fill="white" stroke="#263238" stroke-linecap="round" stroke-linejoin="round"/>
<path d="M205.668 695.188C206.19 694.441 206.486 693.561 206.523 692.65C203.957 693.825 200.926 693.085 199.824 693.245C198.461 693.433 195.344 695.579 188.326 695.188C185.357 695.085 182.435 694.421 179.713 693.23C179.713 694.187 179.713 694.941 179.713 695.391C179.713 698.117 184.977 699.277 190.24 699.48C193.559 699.521 196.815 698.572 199.592 696.754C199.592 696.754 204.102 697.131 205.668 695.188Z" fill="#3F68BB" stroke="#263238" stroke-linecap="round" stroke-linejoin="round"/>
<path d="M198.839 696.754L199.621 687.387" stroke="#263238" stroke-linecap="round" stroke-linejoin="round"/>
<path d="M194.808 677.73C194.148 677.404 193.591 676.902 193.198 676.28C191.632 674.134 188.515 671.611 185.948 672.771C183.899 673.633 182.019 674.85 180.395 676.367C181.236 678.774 183.295 683.022 187.311 683.298C190.646 683.53 193.198 680.644 194.808 677.73Z" fill="#3F68BB" stroke="#263238" stroke-linecap="round" stroke-linejoin="round"/>
<path d="M253.75 680.34C253.75 680.34 250.85 681.123 249.27 680.151C247.689 679.18 245.369 673.336 240.106 673.916C234.842 674.496 232.508 679.368 231.406 679.963C230.304 680.557 230.043 680.731 229.651 681.326C229.26 681.92 229.071 697.696 229.26 699.262C229.448 700.828 240.57 702.365 247.399 701.597C254.229 700.828 256.549 697.885 257.143 697.493C258.104 697.118 258.941 696.482 259.561 695.657C260.181 694.833 260.559 693.852 260.652 692.824C261.044 689.315 259.869 685.415 257.912 684.052C256.673 683.178 255.504 682.208 254.417 681.152L253.75 680.34Z" fill="white" stroke="#263238" stroke-linecap="round" stroke-linejoin="round"/>
<path d="M246.21 697.102C240.419 697.285 234.643 696.4 229.172 694.492C229.172 696.841 229.172 698.755 229.172 699.263C229.375 700.814 240.482 702.366 247.312 701.597C254.141 700.829 256.461 697.885 257.056 697.494C258.017 697.118 258.854 696.482 259.474 695.658C260.094 694.833 260.471 693.852 260.565 692.825C260.645 691.947 260.645 691.063 260.565 690.186C260.275 690.78 259.941 691.418 259.564 692.042C258.491 693.985 255.562 696.914 246.21 697.102Z" fill="#3F68BB" stroke="#263238" stroke-linecap="round" stroke-linejoin="round"/>
<path d="M253.866 690.446L252.735 700.103" stroke="#263238" stroke-linecap="round" stroke-linejoin="round"/>
<path d="M240.7 685.415C244.195 685.821 247.95 683.051 250.038 680.47C249.767 680.403 249.508 680.296 249.27 680.151C247.704 679.18 245.369 673.336 240.106 673.916C234.842 674.496 232.507 679.368 231.405 679.963C231.391 679.963 235.683 684.835 240.7 685.415Z" fill="#3F68BB" stroke="#263238" stroke-linecap="round" stroke-linejoin="round"/>
<path d="M220.632 515.518L212.135 511.27" stroke="#636363" stroke-linecap="round" stroke-linejoin="round"/>
<path d="M238.583 315.94C238.583 315.94 240.714 312.402 241.483 316.999C242.251 321.595 240.41 326.54 237.945 328.309C235.48 330.078 234.407 328.309 234.407 326.54C234.407 324.771 238.583 315.94 238.583 315.94Z" fill="white" stroke="#263238" stroke-linecap="round" stroke-linejoin="round"/>
<path d="M197.2 317.709C196.724 317.53 196.21 317.479 195.708 317.561C195.207 317.643 194.736 317.856 194.342 318.177C193.948 318.499 193.646 318.918 193.466 319.394C193.285 319.869 193.233 320.383 193.314 320.885C193.314 325.133 198.969 331.151 201.448 329.73C203.928 328.309 197.2 317.709 197.2 317.709Z" fill="white" stroke="#263238" stroke-linecap="round" stroke-linejoin="round"/>
<path d="M217.718 276.312C217.718 276.312 212.193 285.505 206.408 287.985C198.969 291.175 192.966 300.73 193.358 308.502C193.749 316.274 205.03 341.751 206.799 342.461C208.568 343.172 230.855 341.403 231.565 340.344C232.276 339.286 235.451 328.672 238.279 318.406C241.106 308.14 241.106 302.847 241.106 302.847C242.133 299.529 242.622 296.068 242.556 292.596C242.34 288.411 240.72 284.422 237.96 281.271L233.711 286.578L235.161 274.558C232.218 274.206 229.24 274.821 226.679 276.312C224.162 277.983 221.9 280.01 219.965 282.33L217.718 276.312Z" fill="#263238" stroke="#263238" stroke-linecap="round" stroke-linejoin="round"/>
<path d="M341.867 285.882C341.345 284.302 339.764 284.302 338.445 280.88C337.125 277.458 333.442 278.255 332.384 277.718C331.325 277.182 331.34 276.674 331.862 275.094C332.384 273.514 333.703 268.25 331.34 268.25C328.976 268.25 327.12 273.775 326.598 275.094C325.153 277.467 323.57 279.752 321.857 281.938C320.735 282.218 319.589 282.393 318.435 282.46C317.13 282.46 315.535 285.099 315.288 286.404C315.114 287.231 316.39 289.913 317.376 291.798C317.818 293.365 318.35 294.904 318.971 296.409C318.971 296.409 320.276 298.25 324.235 297.728C328.193 297.206 335.545 302.47 336.603 301.672C337.662 300.875 340.025 296.148 341.069 293.523C342.067 291.107 342.344 288.453 341.867 285.882V285.882Z" fill="white" stroke="#263238" stroke-linecap="round" stroke-linejoin="round"/>
<path d="M171.622 505.862C171.622 505.862 176.407 513.112 176.668 515.925C176.929 518.738 176.915 523.987 177.161 525.741C177.408 527.496 176.407 528.772 175.16 528.772C174.749 528.733 174.353 528.598 174.003 528.379C173.653 528.16 173.359 527.863 173.145 527.51C173.29 528.953 173.542 530.382 173.899 531.788C174.392 533.557 177.161 535.065 176.915 536.819C176.668 538.574 173.899 539.342 170.114 539.342C167.83 539.327 165.602 538.629 163.718 537.336C161.834 536.044 160.38 534.218 159.544 532.092C157.282 526.814 155.02 511.705 155.02 508.892C155.02 506.079 169.114 503.846 171.622 505.862Z" fill="white" stroke="#263238" stroke-linecap="round" stroke-linejoin="round"/>
<path d="M166.344 515.17C166.344 515.17 167.344 517.432 165.329 520.97C163.966 523.061 162.948 525.357 162.313 527.771C162.873 529.529 163.632 531.217 164.575 532.802C165.59 534.818 168.925 534.571 169.113 536.34C169.293 537.29 169.112 538.272 168.606 539.095" stroke="#263238" stroke-linecap="round" stroke-linejoin="round"/>
<path d="M169.52 525.944C169.747 527.922 170.2 529.868 170.868 531.744C171.883 534.267 177.161 535.775 175.218 538.544" stroke="#263238" stroke-linecap="round" stroke-linejoin="round"/>
<path d="M166.344 527.002C166.585 528.639 167.009 530.244 167.605 531.787C168.359 533.237 173.405 534.803 172.39 538.834" stroke="#263238" stroke-linecap="round" stroke-linejoin="round"/>
<path d="M173.145 527.51C173.145 527.51 172.637 523.479 172.391 521.971C172.21 520.528 172.123 519.075 172.13 517.621" stroke="#263238" stroke-linecap="round" stroke-linejoin="round"/>
<path d="M255.722 351.378C249.102 346.206 241.342 342.691 233.088 341.127C218.936 338.299 200.187 342.896 192.763 347.84C190.547 349.392 188.68 351.389 187.279 353.704C185.878 356.018 184.976 358.599 184.629 361.282L255.722 351.378Z" fill="white" stroke="#263238" stroke-linecap="round" stroke-linejoin="round"/>
<path d="M314.085 308.227C313.706 306.841 313.706 305.378 314.085 303.993C314.795 302.543 315.143 298.323 316.202 297.265C317.26 296.206 325.047 291.958 330.702 294.437C336.357 296.917 339.198 307.487 340.257 309.996C341.315 312.504 338.14 318.13 336.719 318.841C335.298 319.551 333.891 314.592 332.47 313.186C331.049 311.779 319 306.11 314.085 308.227Z" fill="white" stroke="#263238" stroke-linecap="round" stroke-linejoin="round"/>
<path d="M220.705 350.682C219.255 351.03 192.401 354.568 180.38 358.106C168.36 361.644 158.456 366.241 158.094 370.837C157.731 375.434 147.944 461.114 147.567 466.073C147.19 471.032 150.757 499.67 152.526 500.728C154.295 501.787 162.429 502.497 165.257 501.439C167.015 500.752 168.589 499.665 169.853 498.263L170.912 474.556C170.912 474.556 171.622 482.691 173.029 483.053C190.673 487.684 208.984 489.238 227.157 487.649C257.607 485.17 270.309 480.573 272.774 478.804C275.239 477.035 274.906 471.728 274.906 471.728C274.906 471.728 275.254 467.842 275.254 463.942C275.254 460.041 263.9 381.799 263.9 381.799C263.9 381.799 310.59 369.068 314.128 364.82C317.666 360.571 334.645 314.244 334.645 310.706C334.645 307.168 326.859 301.861 321.204 301.513C315.549 301.165 301.745 329.063 298.57 331.223C295.394 333.384 264.959 345.375 253.62 347.492C242.281 349.609 220.705 350.682 220.705 350.682Z" fill="#3F68BB" stroke="#263238" stroke-linecap="round" stroke-linejoin="round"/>
<path d="M209.496 374.651C209.496 374.651 214.281 393.501 228.346 401.2" stroke="#263238" stroke-linecap="round" stroke-linejoin="round"/>
<path d="M230.202 409.553C231.265 410.104 232.353 410.64 233.465 411.162" stroke="#263238" stroke-linecap="round" stroke-linejoin="round"/>
<path d="M209.496 394.197C214.168 398.941 219.391 403.108 225.054 406.609" stroke="#263238" stroke-linecap="round" stroke-linejoin="round"/>
<path d="M265.684 396.14L263.9 381.799L246.5 388.237L253.242 391.007C249.951 393.907 245.644 397.996 248.313 397.517C251.828 396.474 255.207 395.013 258.376 393.167L265.684 396.14Z" fill="#263238" stroke="#263238" stroke-linecap="round" stroke-linejoin="round"/>
<path d="M167.721 464.304C167.721 457.939 170.824 393.124 170.824 393.124L169.766 388.527L161.921 376.028L166.097 400.2C162.777 399.17 156.092 397.401 158.615 400.78C160.956 403.619 163.612 406.183 166.532 408.421L164.154 456.358C163.956 460.36 164.934 464.332 166.967 467.784L169.403 471.931C168.296 469.541 167.722 466.939 167.721 464.304V464.304Z" fill="#263238" stroke="#263238" stroke-linecap="round" stroke-linejoin="round"/>
<path d="M169.404 471.989C169.791 472.895 170.277 473.756 170.854 474.556L169.404 471.989Z" fill="#263238" stroke="#263238" stroke-linecap="round" stroke-linejoin="round"/>
<path d="M273.485 469.959C219.371 494.363 170.911 474.556 170.911 474.556C170.911 474.556 171.622 482.69 173.028 483.053C190.673 487.683 208.984 489.238 227.157 487.649C257.607 485.17 270.309 480.573 272.774 478.804C275.239 477.035 274.906 471.728 274.906 471.728C274.906 471.728 274.906 470.916 275.051 469.655L273.485 469.959Z" fill="white" stroke="#263238" stroke-linecap="round" stroke-linejoin="round"/>
<path d="M148.625 497.19C148.625 497.19 156.759 500.728 163.487 498.64C170.215 496.552 171.97 494.392 173.028 494.754C174.087 495.117 174.101 503.585 173.028 506.064C171.955 508.544 169.49 510.313 162.066 511.023C154.642 511.734 150.757 508.123 150.046 506.064C149.385 503.14 148.91 500.176 148.625 497.19V497.19Z" fill="white" stroke="#263238" stroke-linecap="round" stroke-linejoin="round"/>
<path d="M119.364 691.374C148.426 691.374 171.985 684.064 171.985 675.047C171.985 666.03 148.426 658.72 119.364 658.72C90.3025 658.72 66.7435 666.03 66.7435 675.047C66.7435 684.064 90.3025 691.374 119.364 691.374Z" fill="#3F68BB"/>
<path opacity="0.5" d="M119.364 691.374C148.426 691.374 171.985 684.064 171.985 675.047C171.985 666.03 148.426 658.72 119.364 658.72C90.3025 658.72 66.7435 666.03 66.7435 675.047C66.7435 684.064 90.3025 691.374 119.364 691.374Z" fill="white"/>
<path d="M127.673 304.413C127.673 304.413 132.023 309.575 131.805 311.663C131.634 314.007 132.191 316.347 133.4 318.362C134.43 319.653 137.272 320.682 137.272 323.002C137.175 324.569 136.637 326.077 135.72 327.352C135.72 327.352 136.764 337.691 135.72 340.272C134.676 342.853 130.558 342.853 128.238 342.853C125.918 342.853 124.628 342.592 123.888 342.592C123.149 342.592 118.465 338.459 114.855 329.426C111.244 320.392 115.377 306.951 118.465 305.153C121.554 303.355 127.673 304.413 127.673 304.413Z" fill="white" stroke="#263238" stroke-linecap="round" stroke-linejoin="round"/>
<path d="M125.875 320.174L136.46 314.229" stroke="#263238" stroke-linecap="round" stroke-linejoin="round"/>
<path d="M131.805 313.2C131.805 313.2 137.489 311.648 135.43 319.913" stroke="#263238" stroke-linecap="round" stroke-linejoin="round"/>
<path d="M116.363 350.74L114.753 369.953L94.3516 365.139V349.928C94.3516 349.928 108.75 346.724 116.363 350.74Z" fill="white" stroke="#263238" stroke-linecap="round" stroke-linejoin="round"/>
<path d="M114.26 295.8C110.475 296.774 106.543 297.044 102.66 296.597C96.686 295.8 83.549 297.395 79.9675 306.167C76.386 314.94 80.765 322.886 80.359 325.278C79.953 327.671 73.5875 331.252 73.5875 334.848C73.5875 338.444 76.3715 341.62 75.1825 344.404C73.9935 347.188 71.9925 349.58 73.5875 352.364C75.1825 355.148 81.5625 350.378 82.2875 353.162C83.0125 355.946 89.059 359.542 91.8575 359.542C94.656 359.542 97.8315 353.568 99.4265 355.946C101.022 358.324 104.197 360.731 107.387 360.296C110.577 359.861 112.158 352.538 118.987 355.511C125.817 358.483 127.992 352.263 127.687 346.811C127.455 341.62 121.322 334.457 122.511 330.469C123.7 326.482 126.092 323.698 125.295 319.319C124.497 314.94 120.945 313.345 122.902 310.155C124.86 306.965 127.687 306.979 128.485 302.992C129.282 299.004 127.687 293.828 121.713 293.03C115.739 292.233 114.26 295.8 114.26 295.8Z" fill="white" stroke="#263238" stroke-linecap="round" stroke-linejoin="round"/>
<path d="M78.3 499.235C78.3 499.235 83.9115 531.251 81.113 562.078C79.982 574.446 73.863 577.694 72.297 594.094C70.731 610.493 76.299 643.727 73.5005 661.345C73.1235 663.752 70.296 669.755 73.5005 672.945C76.705 676.135 87.9135 674.148 91.118 674.148C94.3225 674.148 101.921 672.945 102.718 670.944C103.516 668.943 97.9185 666.942 94.3225 660.141C90.2296 652.358 88.0336 643.718 87.9135 634.926C87.9135 625.718 93.5105 599.705 97.9185 578.492C102.327 557.278 104.719 545.664 104.719 533.658V495.958C104.719 493.957 93.9165 489.157 85.5065 490.752C77.0965 492.347 78.3 499.235 78.3 499.235Z" fill="white" stroke="#263238" stroke-linecap="round" stroke-linejoin="round"/>
<path d="M94.3516 660.141C93.7281 658.981 93.1481 657.734 92.5971 656.444C91.5531 658.648 91.1471 661.287 89.1461 661.751C85.5356 662.548 73.5296 661.345 73.5296 661.345C73.1381 663.752 70.3251 669.755 73.5296 672.945C76.7341 676.135 87.9426 674.148 91.1471 674.148C94.3516 674.148 101.95 672.945 102.747 670.944C103.545 668.943 97.9476 667 94.3516 660.141Z" fill="#263238" stroke="#263238" stroke-linecap="round" stroke-linejoin="round"/>
<path d="M88.827 644.032C88.2564 641.03 87.9603 637.982 87.9425 634.926C87.9425 625.718 93.5395 599.705 97.9475 578.492C102.356 557.278 104.748 545.664 104.748 533.658V495.958C104.748 493.957 93.9455 489.157 85.5355 490.752C77.1255 492.347 78.2855 499.162 78.2855 499.162C78.2855 499.162 83.897 531.178 81.0985 562.005C79.9675 574.374 73.8485 577.622 72.2825 594.021C71.1225 605.94 73.7325 626.719 74.211 643.959C79.0049 645.17 84.0214 645.195 88.827 644.032V644.032Z" fill="#3F68BB" stroke="#263238" stroke-linecap="round" stroke-linejoin="round"/>
<path d="M73.1381 636.55C76.1697 637.17 79.2419 637.572 82.3311 637.753C84.9304 637.578 87.4925 637.041 89.9436 636.158L91.1471 646.569C87.4966 647.649 83.7373 648.32 79.9386 648.57C77.903 648.715 75.8595 648.439 73.9356 647.758C73.9356 647.758 73.1381 639.725 73.1381 636.55Z" fill="white" stroke="#263238" stroke-linecap="round" stroke-linejoin="round"/>
<path d="M73.95 469.611C73.95 469.611 71.543 485.561 73.95 493.623C76.357 501.685 82.7515 512.85 84.361 516.04C85.9705 519.23 87.957 529.25 87.957 531.251C87.957 533.252 89.552 556.872 87.1595 568.878C84.767 580.884 81.954 587.728 81.954 599.328C81.954 610.928 87.551 654.269 87.551 661.867C87.551 669.465 84.7525 679.078 86.7535 681.079C88.7545 683.08 123.178 679.006 126.382 677.802C126.993 677.574 127.543 677.208 127.99 676.733C128.437 676.259 128.769 675.688 128.961 675.064C129.153 674.441 129.2 673.782 129.097 673.138C128.994 672.494 128.745 671.882 128.369 671.35C127.165 669.755 112.752 665.028 110.36 663.027C107.967 661.026 106.358 654.617 106.01 651.818C105.662 649.02 106.807 606.085 108.417 596.486C110.026 586.887 116.421 568.066 120.017 557.655C123.613 547.244 130.022 510.429 130.022 497.219C130.027 489.331 129.631 481.447 128.833 473.599C128.833 473.599 91.5385 476.412 73.95 469.611Z" fill="white" stroke="#263238" stroke-linecap="round" stroke-linejoin="round"/>
<path d="M126.368 677.773C126.975 677.545 127.522 677.181 127.968 676.709C128.413 676.238 128.745 675.67 128.938 675.051C129.131 674.431 129.18 673.776 129.081 673.135C128.983 672.493 128.739 671.883 128.369 671.35C127.165 669.755 112.752 665.028 110.36 663.027C109.98 662.697 109.649 662.317 109.374 661.896L108.359 668.232C105.856 670.248 102.755 671.375 99.5425 671.437C95.5405 671.437 89.6535 668.827 87.145 667.623C86.4635 673.684 85.0425 679.745 86.739 681.036C94.8735 687.3 123.163 678.977 126.368 677.773Z" fill="#263238" stroke="#263238" stroke-linecap="round" stroke-linejoin="round"/>
<path d="M105.85 650.339C105.734 642.683 106.865 605.273 108.33 596.501C109.925 586.887 116.334 568.081 119.93 557.67C123.526 547.259 129.935 510.443 129.935 497.234C129.94 489.345 129.544 481.461 128.746 473.613C128.746 473.613 91.5385 476.412 73.95 469.611C73.95 469.611 71.543 485.561 73.95 493.623C76.357 501.685 82.7515 512.85 84.361 516.04C85.9705 519.23 87.957 529.25 87.957 531.251C87.957 533.252 89.552 556.872 87.1595 568.878C84.767 580.884 81.954 587.728 81.954 599.328C81.954 607.55 84.767 634.302 86.4055 648.831C90.9543 650.105 95.635 650.85 100.355 651.05C102.208 651.033 104.053 650.795 105.85 650.339V650.339Z" fill="#3F68BB" stroke="#263238" stroke-linecap="round" stroke-linejoin="round"/>
<path d="M86.3475 653.834C89.021 654.885 91.8704 655.416 94.743 655.4C99.5425 655.4 106.749 656.589 106.343 654.196C106.218 650.721 106.349 647.241 106.735 643.785C106.735 643.785 97.933 644.989 92.7275 644.191C87.522 643.394 84.332 642.988 84.332 642.988C84.332 642.988 85.144 651.441 86.3475 653.834Z" fill="white" stroke="#263238" stroke-linecap="round" stroke-linejoin="round"/>
<path d="M119.161 374.346C115.017 369.049 109.252 365.255 102.747 363.544C91.9445 360.745 81.5335 376.753 78.735 385.555C75.9365 394.356 75.5305 417.977 71.485 429.983C67.4395 441.989 64.6845 466.015 66.2795 468.814C67.8745 471.612 102.312 480.414 114.318 480.414C126.324 480.414 139.2 470.815 139.577 466.015C139.954 461.216 137.576 429.2 135.575 411.974C133.574 394.748 119.161 374.346 119.161 374.346Z" fill="#263238" stroke="#263238" stroke-linecap="round" stroke-linejoin="round"/>
<path d="M113.825 507.5C113.825 507.5 113.695 513.053 113.825 516.316C113.903 519.301 113.492 522.279 112.607 525.132C111.926 527.292 110.302 528.786 110.171 527.292C110.041 525.799 110.708 523.087 110.708 521.869C110.708 520.651 110.302 515.098 110.302 515.098C109.995 517.103 109.589 519.092 109.084 521.057C108.272 524.175 105.966 527.423 104.879 527.698C103.791 527.974 103.11 527.017 103.661 525.538C104.212 524.059 105.56 519.738 105.691 518.752C105.821 517.766 105.85 514.75 105.85 514.75C104.824 517.849 103.604 520.881 102.196 523.827C101.109 525.465 100.978 526.277 99.8905 526.408C98.803 526.538 98.948 524.233 99.615 522.478C100.403 519.858 100.995 517.182 101.384 514.474C101.384 513.938 100.166 516.91 98.6726 518.549C97.1791 520.187 96.0916 521.521 95.4101 521.26C94.7286 520.999 95.6856 518.36 96.2366 517.186C96.8753 515.761 97.3286 514.26 97.5851 512.72V509.196C97.5851 509.196 96.367 506.47 102.066 505.528C107.764 504.585 112.607 503.498 113.825 507.5Z" fill="white" stroke="#263238" stroke-linecap="round" stroke-linejoin="round"/>
<path d="M93.9601 503.643C93.613 504.639 93.5948 505.72 93.908 506.728C94.2212 507.735 94.8493 508.616 95.7001 509.24C98.6871 511.241 109.345 512.85 112.752 509.646C114.678 508.034 115.9 505.735 116.16 503.237L93.9601 503.643Z" fill="white" stroke="#263238" stroke-linecap="round" stroke-linejoin="round"/>
<path d="M97.15 379.146C97.15 379.146 88.3485 393.559 88.3485 402.766C88.3485 411.974 83.5345 476.412 83.143 484.43C82.7515 492.449 83.5345 498.829 88.3485 502.831C93.1625 506.833 112.752 506.833 117.958 504.832C123.163 502.831 127.963 493.623 127.963 487.229C127.963 480.834 121.96 433.579 120.713 424.386C119.466 415.193 119.103 390.76 115.507 385.163C111.911 379.566 110.693 379.146 110.693 379.146" fill="#263238"/>
<path d="M97.15 379.146C97.15 379.146 88.3485 393.559 88.3485 402.766C88.3485 411.974 83.5345 476.412 83.143 484.43C82.7515 492.449 83.5345 498.829 88.3485 502.831C93.1625 506.833 112.752 506.833 117.958 504.832C123.163 502.831 127.963 493.623 127.963 487.229C127.963 480.834 121.96 433.579 120.713 424.386C119.466 415.193 119.103 390.76 115.507 385.163C111.911 379.566 110.693 379.146 110.693 379.146" stroke="#263238" stroke-linecap="round" stroke-linejoin="round"/>
<path d="M83.9985 469.93C83.9985 469.93 86.449 414.149 88.3485 402.766C89.6064 395.593 91.8154 388.62 94.917 382.031" stroke="#636363" stroke-linecap="round" stroke-linejoin="round"/>
<path d="M113.1 382.553C113.1 382.553 120.017 395.85 120.35 410.103C120.684 424.357 125.556 469.916 125.556 469.916" stroke="#636363" stroke-linecap="round" stroke-linejoin="round"/>
<path d="M118.77 396.358L119.959 388.354" stroke="#636363" stroke-linecap="round" stroke-linejoin="round"/>
</svg>
