<svg  viewBox="0 0 156 46" fill="#FFFFFF" xmlns="http://www.w3.org/2000/svg">
<path d="M0.300078 5.84135C-0.801814 3.0351 1.26713 0 4.28197 0V0C6.08484 0 7.69419 1.1303 8.30598 2.8262L11.3018 11.1307C14.1468 19.017 25.2803 19.0721 28.2031 11.2143L31.4059 2.60377C31.9882 1.03838 33.4823 0 35.1525 0V0C37.9863 0 39.9203 2.86704 38.8589 5.49457L24.074 42.0949C23.2886 44.0391 21.4016 45.312 19.3047 45.312V45.312C17.1896 45.312 15.29 44.0171 14.5169 42.0483L0.300078 5.84135Z" />
<path d="M41.8539 18.936H45.0939V36H41.8539V18.936ZM41.0979 12.816C41.0979 12.168 41.3259 11.616 41.7819 11.16C42.2619 10.68 42.8259 10.44 43.4739 10.44C44.1219 10.44 44.6739 10.68 45.1299 11.16C45.6099 11.616 45.8499 12.168 45.8499 12.816C45.8499 13.464 45.6099 14.028 45.1299 14.508C44.6739 14.964 44.1219 15.192 43.4739 15.192C42.8259 15.192 42.2619 14.964 41.7819 14.508C41.3259 14.028 41.0979 13.464 41.0979 12.816ZM59.3223 23.22C58.9383 22.74 58.4583 22.344 57.8823 22.032C57.3303 21.696 56.6463 21.528 55.8303 21.528C55.0623 21.528 54.3903 21.696 53.8143 22.032C53.2623 22.344 52.9863 22.812 52.9863 23.436C52.9863 23.94 53.1423 24.348 53.4543 24.66C53.7903 24.972 54.1743 25.224 54.6063 25.416C55.0623 25.608 55.5423 25.752 56.0463 25.848C56.5503 25.944 56.9823 26.028 57.3423 26.1C58.0383 26.268 58.6863 26.472 59.2863 26.712C59.9103 26.952 60.4383 27.264 60.8703 27.648C61.3263 28.032 61.6743 28.5 61.9143 29.052C62.1783 29.604 62.3103 30.276 62.3103 31.068C62.3103 32.028 62.1063 32.856 61.6983 33.552C61.2903 34.224 60.7623 34.776 60.1143 35.208C59.4663 35.64 58.7223 35.952 57.8823 36.144C57.0663 36.336 56.2383 36.432 55.3983 36.432C53.9823 36.432 52.7343 36.216 51.6543 35.784C50.5983 35.352 49.6503 34.56 48.8103 33.408L51.2583 31.392C51.7863 31.92 52.3743 32.388 53.0223 32.796C53.6703 33.204 54.4623 33.408 55.3983 33.408C55.8063 33.408 56.2143 33.372 56.6223 33.3C57.0543 33.204 57.4263 33.072 57.7383 32.904C58.0743 32.712 58.3383 32.484 58.5303 32.22C58.7463 31.932 58.8543 31.608 58.8543 31.248C58.8543 30.768 58.6983 30.372 58.3863 30.06C58.0983 29.748 57.7383 29.508 57.3063 29.34C56.8983 29.148 56.4543 29.004 55.9743 28.908C55.5183 28.788 55.1103 28.692 54.7503 28.62C54.0543 28.452 53.3943 28.26 52.7703 28.044C52.1463 27.828 51.5943 27.54 51.1143 27.18C50.6343 26.82 50.2503 26.364 49.9623 25.812C49.6743 25.26 49.5303 24.576 49.5303 23.76C49.5303 22.872 49.7103 22.104 50.0703 21.456C50.4543 20.784 50.9463 20.232 51.5463 19.8C52.1703 19.368 52.8663 19.044 53.6343 18.828C54.4263 18.612 55.2183 18.504 56.0103 18.504C57.1623 18.504 58.2663 18.72 59.3223 19.152C60.3783 19.584 61.2183 20.304 61.8423 21.312L59.3223 23.22ZM81.3664 36H78.1264V33.372H78.0544C77.6464 34.284 76.9384 35.028 75.9304 35.604C74.9224 36.156 73.7584 36.432 72.4384 36.432C71.5984 36.432 70.8064 36.3 70.0624 36.036C69.3184 35.796 68.6584 35.412 68.0824 34.884C67.5304 34.356 67.0864 33.684 66.7504 32.868C66.4144 32.028 66.2464 31.044 66.2464 29.916V18.936H69.4864V29.016C69.4864 29.808 69.5944 30.492 69.8104 31.068C70.0264 31.62 70.3144 32.076 70.6744 32.436C71.0344 32.772 71.4424 33.024 71.8984 33.192C72.3784 33.336 72.8704 33.408 73.3744 33.408C74.0464 33.408 74.6704 33.3 75.2464 33.084C75.8224 32.868 76.3264 32.532 76.7584 32.076C77.1904 31.596 77.5264 30.996 77.7664 30.276C78.0064 29.556 78.1264 28.704 78.1264 27.72V18.936H81.3664V36ZM86.3223 21.024C87.2343 20.184 88.2903 19.56 89.4903 19.152C90.6903 18.72 91.8903 18.504 93.0903 18.504C94.3383 18.504 95.4063 18.66 96.2943 18.972C97.2063 19.284 97.9503 19.704 98.5263 20.232C99.1023 20.76 99.5223 21.372 99.7863 22.068C100.074 22.74 100.218 23.448 100.218 24.192V32.904C100.218 33.504 100.23 34.056 100.254 34.56C100.278 35.064 100.314 35.544 100.362 36H97.4823C97.4103 35.136 97.3743 34.272 97.3743 33.408H97.3023C96.5823 34.512 95.7303 35.292 94.7463 35.748C93.7623 36.204 92.6223 36.432 91.3263 36.432C90.5343 36.432 89.7783 36.324 89.0583 36.108C88.3383 35.892 87.7023 35.568 87.1503 35.136C86.6223 34.704 86.2023 34.176 85.8903 33.552C85.5783 32.904 85.4223 32.16 85.4223 31.32C85.4223 30.216 85.6623 29.292 86.1423 28.548C86.6463 27.804 87.3183 27.204 88.1583 26.748C89.0223 26.268 90.0183 25.932 91.1463 25.74C92.2983 25.524 93.5223 25.416 94.8183 25.416H97.1943V24.696C97.1943 24.264 97.1103 23.832 96.9423 23.4C96.7743 22.968 96.5223 22.584 96.1863 22.248C95.8503 21.888 95.4303 21.612 94.9263 21.42C94.4223 21.204 93.8223 21.096 93.1263 21.096C92.5023 21.096 91.9503 21.156 91.4703 21.276C91.0143 21.396 90.5943 21.552 90.2103 21.744C89.8263 21.912 89.4783 22.116 89.1663 22.356C88.8543 22.596 88.5543 22.824 88.2663 23.04L86.3223 21.024ZM95.4663 27.792C94.6983 27.792 93.9063 27.84 93.0903 27.936C92.2983 28.008 91.5663 28.164 90.8943 28.404C90.2463 28.644 89.7063 28.98 89.2743 29.412C88.8663 29.844 88.6623 30.396 88.6623 31.068C88.6623 32.052 88.9863 32.76 89.6343 33.192C90.3063 33.624 91.2063 33.84 92.3343 33.84C93.2223 33.84 93.9783 33.696 94.6023 33.408C95.2263 33.096 95.7303 32.7 96.1143 32.22C96.4983 31.74 96.7743 31.212 96.9423 30.636C97.1103 30.036 97.1943 29.448 97.1943 28.872V27.792H95.4663ZM105.17 8.784H108.41V36H105.17V8.784ZM113.819 18.936H117.059V36H113.819V18.936ZM113.063 12.816C113.063 12.168 113.291 11.616 113.747 11.16C114.227 10.68 114.791 10.44 115.439 10.44C116.087 10.44 116.639 10.68 117.095 11.16C117.575 11.616 117.815 12.168 117.815 12.816C117.815 13.464 117.575 14.028 117.095 14.508C116.639 14.964 116.087 15.192 115.439 15.192C114.791 15.192 114.227 14.964 113.747 14.508C113.291 14.028 113.063 13.464 113.063 12.816ZM121.027 33.084L130.711 21.744H121.351V18.936H134.671V21.816L124.915 33.192H135.175V36H121.027V33.084ZM141.327 28.656C141.327 29.4 141.483 30.084 141.795 30.708C142.131 31.308 142.563 31.824 143.091 32.256C143.619 32.688 144.231 33.024 144.927 33.264C145.623 33.504 146.343 33.624 147.087 33.624C148.095 33.624 148.971 33.396 149.715 32.94C150.459 32.46 151.143 31.836 151.767 31.068L154.215 32.94C152.415 35.268 149.895 36.432 146.655 36.432C145.311 36.432 144.087 36.204 142.983 35.748C141.903 35.292 140.979 34.668 140.211 33.876C139.467 33.06 138.891 32.112 138.483 31.032C138.075 29.928 137.871 28.74 137.871 27.468C137.871 26.196 138.087 25.02 138.519 23.94C138.975 22.836 139.587 21.888 140.355 21.096C141.147 20.28 142.083 19.644 143.163 19.188C144.243 18.732 145.419 18.504 146.691 18.504C148.203 18.504 149.475 18.768 150.507 19.296C151.563 19.824 152.427 20.52 153.099 21.384C153.771 22.224 154.251 23.184 154.539 24.264C154.851 25.32 155.007 26.4 155.007 27.504V28.656H141.327ZM151.551 26.064C151.527 25.344 151.407 24.684 151.191 24.084C150.999 23.484 150.699 22.968 150.291 22.536C149.883 22.08 149.367 21.732 148.743 21.492C148.143 21.228 147.435 21.096 146.619 21.096C145.827 21.096 145.095 21.252 144.423 21.564C143.775 21.852 143.223 22.236 142.767 22.716C142.311 23.196 141.951 23.736 141.687 24.336C141.447 24.912 141.327 25.488 141.327 26.064H151.551Z"/>
</svg>
