<svg  viewBox="0 0 188 171" fill="none" xmlns="http://www.w3.org/2000/svg">
<path d="M0 85.5C0 71.4167 11.4167 60 25.5 60H188V111H25.5C11.4167 111 0 99.5833 0 85.5V85.5Z" fill="#FDFDFD"/>
<path fill-rule="evenodd" clip-rule="evenodd" d="M128 170H128V110H128H188V169.939C188 169.96 188 169.98 188 170H188V169.939C187.984 154.048 181.664 138.812 170.426 127.574C159.174 116.321 143.913 110 128 110L128 170Z" fill="#FDFDFD"/>
<path fill-rule="evenodd" clip-rule="evenodd" d="M170.426 43.4264C181.679 32.1742 188 16.913 188 1V61H128C143.913 61 159.174 54.6786 170.426 43.4264Z" fill="#FDFDFD"/>
</svg>
